<svg xmlns="http://www.w3.org/2000/svg" width="980" height="350"><path d="M82.734 297.432c1.232-1.434 2.75-2.133 4.55-2.1 1.866-.033 3.383.667 4.55 2.1 1.2 1.333 1.7 2.9 1.5 4.7l-1.35 18.3h-8.35l-2.2-18.3c-.133-1.8.3-3.367 1.3-4.7zM63.484 295.332c1.8-.033 3.316.667 4.55 2.1 1 1.333 1.433 2.9 1.3 4.7l-2.2 18.3h-8.35l-1.35-18.3c-.2-1.8.3-3.367 1.5-4.7 1.166-1.434 2.683-2.133 4.55-2.1z" fill="#6fc4a9"/><path d="M103.36 286.308c-3.385 4.294-6.842 4.91-10.368 1.853l-5.826 7.12.295.113c8.077 2.604 14.688.606 19.833-5.996.417-.563.594-1.173.527-1.83-.09-.677-.408-1.238-.95-1.68-.54-.444-1.15-.62-1.83-.53-.677.092-1.237.41-1.68.95zM48.234 300.332c-.467.5-1.05.75-1.75.75s-1.3-.233-1.8-.7c-.468-.466-.718-1.05-.75-1.75-.2-8.367 3.65-14.1 11.55-17.2l.3-.1v9.2c-4.667-.134-6.95 2.533-6.85 8 0 .7-.234 1.3-.7 1.8z" fill="#6fc4a9"/><path d="M60.183 243.032c4.2-4.2 9.267-6.3 15.2-6.3s11 2.1 15.2 6.3c4.2 4.2 6.3 9.267 6.3 15.2v40.4c0 3.633-2.1 6.733-6.3 9.3-4.2 2.533-9.266 3.8-15.2 3.8-5.932 0-11-1.267-15.2-3.8-4.198-2.567-6.3-5.667-6.3-9.3v-40.4c0-5.933 2.1-11 6.3-15.2z" fill="#6fc4a9"/><path d="M85.683 266.182c1-.967 2.2-1.45 3.6-1.45 1.334 0 2.484.483 3.45 1.45 1 1 1.5 2.167 1.5 3.5 0 1.333-.5 2.466-1.5 3.4-.966 1-2.116 1.5-3.45 1.5-1.4 0-2.6-.5-3.6-1.5-.932-.934-1.4-2.067-1.4-3.4 0-1.333.468-2.5 1.4-3.5zm-.2 11.2l.5-.55c.268-.133.534-.133.8 0l.6.5v.8c-.398.9-1.05 1.717-1.95 2.45-1.4 1.1-3.083 1.65-5.05 1.65-2 0-3.7-.55-5.1-1.65-1-.733-1.633-1.583-1.9-2.55l.102-.75.55-.5.85.1.45.55c.2.6.6 1.133 1.2 1.6 1.032.8 2.315 1.2 3.85 1.2 1.466 0 2.732-.4 3.8-1.2.6-.5 1.032-1.05 1.3-1.65zm-13.9-12.65c1.334 0 2.484.483 3.45 1.45 1 1 1.5 2.167 1.5 3.5 0 1.333-.5 2.466-1.5 3.4-.966 1-2.116 1.5-3.45 1.5-1.4 0-2.6-.5-3.6-1.5-.933-.934-1.4-2.067-1.4-3.4 0-1.333.468-2.5 1.4-3.5 1-.967 2.2-1.45 3.6-1.45z" fill="#347e67"/><path d="M93.484 244.182c1.833 1.833 2.75 4.05 2.75 6.65 0 2.6-.917 4.816-2.75 6.65-1.834 1.833-4.05 2.75-6.65 2.75-2.6 0-4.816-.917-6.65-2.75-1.867-1.834-2.8-4.05-2.8-6.65 0-2.6.934-4.817 2.8-6.65 1.834-1.867 4.05-2.8 6.65-2.8 2.6 0 4.816.933 6.65 2.8z" opacity=".302" fill="#fff"/><path d="M96.234 250.832c0-2.6-.917-4.817-2.75-6.65-1.834-1.867-4.05-2.8-6.65-2.8-2.6 0-4.816.934-6.65 2.8-1.867 1.833-2.8 4.05-2.8 6.65 0 2.6.934 4.816 2.8 6.65 1.834 1.833 4.05 2.75 6.65 2.75 2.6 0 4.816-.917 6.65-2.75 1.833-1.834 2.75-4.05 2.75-6.65zm-1.3-9.1c5.366 5.367 8.05 11.85 8.05 19.45 0 7.633-2.684 14.15-8.05 19.55-5.433 5.367-11.95 8.05-19.55 8.05-7.6 0-14.083-2.684-19.45-8.05-5.433-5.4-8.15-11.917-8.15-19.55 0-7.6 2.718-14.083 8.15-19.45 5.367-5.4 11.85-8.1 19.45-8.1s14.117 2.7 19.55 8.1z" opacity=".2" fill="#fff"/><path d="M102.984 261.182c0-7.6-2.684-14.083-8.05-19.45-5.433-5.4-11.95-8.1-19.55-8.1-7.6 0-14.083 2.7-19.45 8.1-5.433 5.367-8.15 11.85-8.15 19.45 0 7.633 2.718 14.15 8.15 19.55 5.367 5.367 11.85 8.05 19.45 8.05s14.117-2.684 19.55-8.05c5.367-5.4 8.05-11.917 8.05-19.55zm-27.6-32.55c9 0 16.7 3.184 23.1 9.55 6.334 6.333 9.5 14 9.5 23 0 9.033-3.166 16.733-9.5 23.1-6.4 6.333-14.1 9.5-23.1 9.5-9 0-16.667-3.167-23-9.5-6.4-6.367-9.6-14.067-9.6-23.1 0-9 3.2-16.667 9.6-23 6.333-6.367 14-9.55 23-9.55z" fill="#fff"/><path d="M91.284 292.132c.8 0 1.483.284 2.05.85.566.567.85 1.25.85 2.05 0 .8-.283 1.483-.85 2.05-.566.566-1.25.85-2.05.85-.8 0-1.483-.284-2.05-.85-.567-.567-.85-1.25-.85-2.05 0-.8.283-1.483.85-2.05.567-.567 1.25-.85 2.05-.85zm-2.85 7.55c.566 0 1.05.2 1.45.6.4.4.6.883.6 1.45s-.2 1.05-.6 1.45c-.4.4-.884.6-1.45.6-.567 0-1.05-.2-1.45-.6-.4-.4-.6-.883-.6-1.45 0-.566.2-1.05.6-1.45.4-.4.883-.6 1.45-.6zm-8.85-.8c1.1 0 2.033.383 2.8 1.15.767.767 1.15 1.7 1.15 2.8 0 1.1-.384 2.033-1.15 2.8-.766.767-1.7 1.15-2.8 1.15-1.1 0-2.033-.384-2.8-1.15-.767-.766-1.15-1.7-1.15-2.8 0-1.1.384-2.033 1.15-2.8.767-.767 1.7-1.15 2.8-1.15z" opacity=".502" fill="#8bcfba"/><path fill="#1a1a1a" fill-opacity=".941" d="M228.822 33.318h4v300h-4z"/><path fill="#1a1a1a" fill-opacity=".941" d="M792.9 292.727v4h-600v-4zM239.97 33.318l-9.148-.028-9.147-.028 4.598-7.908 4.598-7.908 4.55 7.936zM792.898 303.874l.03-9.147.027-9.147 7.907 4.598 7.908 4.598-7.936 4.55z"/><text style="line-height:125%" x="815.142" y="1002.558" font-size="20" letter-spacing="0" word-spacing="0" font-family="Sans" transform="translate(0 -702.362)"><tspan x="815.142" y="1002.558">x</tspan></text><text style="line-height:125%" x="253.788" y="731.133" font-size="20" letter-spacing="0" word-spacing="0" font-family="Sans" transform="translate(0 -702.362)"><tspan x="253.788" y="731.133">y</tspan></text><path fill="#1a1a1a" fill-opacity=".941" d="M370.244 152.478l2.828 2.828-141.42 141.42-2.83-2.827z"/><text style="line-height:125%" x="210.81" y="1021.675" font-size="20" letter-spacing="0" word-spacing="0" font-family="Sans" transform="translate(0 -702.362)"><tspan x="210.81" y="1021.675">0</tspan></text><text style="line-height:125%" x="361.632" y="1024.343" font-size="20" letter-spacing="0" word-spacing="0" font-family="Sans" transform="translate(0 -702.362)"><tspan x="361.632" y="1024.343">4</tspan></text><text style="line-height:125%" x="383.422" y="852.665" font-size="20" letter-spacing="0" word-spacing="0" font-family="Sans" transform="translate(0 -702.362)"><tspan x="383.422" y="852.665">f(x) = x</tspan></text><path d="M372.735 292.788l-62.475-.035-74.742-.018c38.193-38.243 95.88-96.236 137.526-137.628.51 47.363-.155 90.78-.31 137.68z" fill="#1abc9c" fill-opacity=".403"/><text y="869.419" x="210.863" style="line-height:125%" font-size="20" letter-spacing="0" word-spacing="0" font-family="Sans" transform="translate(0 -702.362)"><tspan y="869.419" x="210.863">4</tspan></text></svg>