<svg xmlns="http://www.w3.org/2000/svg" xmlns:xlink="http://www.w3.org/1999/xlink" width="980" height="350"><g transform="translate(0 -702.362)"><g id="a"><path d="M84.218 1006.787c1.267-4.067 3.8-6.917 7.6-8.55 6.9 6.067 9.8 11.55 8.7 16.45-.434 1.9-1.233 3.417-2.4 4.55-1.467.867-2.717.75-3.75-.35-.6-6.033-3.984-10.067-10.15-12.1zm-31.15 13.4c3.9-4.367 4.583-9.483 2.05-15.35 3.867-1.767 7.684-1.767 11.45 0 .066 9.2-2.116 15.017-6.55 17.45-1.667.933-3.283 1.35-4.85 1.25-1.767-.534-2.466-1.65-2.1-3.35z" fill="#6fc4a9"/><path d="M52.918 959.837c0-5.933 2.1-11 6.3-15.2 4.2-4.2 9.267-6.3 15.2-6.3s11 2.1 15.2 6.3c4.2 4.2 6.3 9.267 6.3 15.2v40.4c0 3.634-2.1 6.733-6.3 9.3-4.2 2.533-9.268 3.8-15.2 3.8-5.934 0-11-1.267-15.2-3.8-4.2-2.567-6.3-5.667-6.3-9.3v-40.4z" fill="#6fc4a9"/><path d="M70.618 976.187c-1.4 0-2.6-.5-3.6-1.5-.934-.934-1.4-2.066-1.4-3.4s.467-2.5 1.4-3.5c1-.967 2.2-1.45 3.6-1.45 1.334 0 2.483.483 3.45 1.45 1 1 1.5 2.167 1.5 3.5 0 1.333-.5 2.466-1.5 3.4-.967 1-2.116 1.5-3.45 1.5zm12.7-4.9c0-1.333.467-2.5 1.4-3.5 1-.967 2.2-1.45 3.6-1.45 1.333 0 2.483.483 3.45 1.45 1 1 1.5 2.167 1.5 3.5 0 1.333-.5 2.466-1.5 3.4-.967 1-2.117 1.5-3.45 1.5-1.4 0-2.6-.5-3.6-1.5-.933-.934-1.4-2.066-1.4-3.4zM81.168 983.587c-.467.5-1.05.75-1.75.75s-1.3-.25-1.8-.75c-.468-.466-.7-1.05-.7-1.75s.232-1.3.7-1.8c.5-.467 1.1-.7 1.8-.7s1.283.233 1.75.7c.5.5.75 1.1.75 1.8s-.25 1.284-.75 1.75z" fill="#347e67"/><path d="M43.718 1001.987c-.467-.466-.717-1.05-.75-1.75-.2-8.366 3.65-14.1 11.55-17.2l.3-.1v9.2c-4.667-.134-6.95 2.533-6.85 8 0 .7-.233 1.3-.7 1.8-.467.5-1.05.75-1.75.75s-1.3-.233-1.8-.7zm50.6-15.95c3.967 2.466 7.283 1.316 9.95-3.45.366-.633.866-1.05 1.5-1.25.667-.167 1.3-.083 1.9.25.6.367 1 .867 1.2 1.5.166.633.083 1.267-.25 1.9-4 7.333-10.2 10.367-18.6 9.1l-.3-.05 4.6-8z" fill="#6fc4a9"/><path d="M74.418 935.237c7.6 0 14.116 2.7 19.55 8.1 5.366 5.367 8.05 11.85 8.05 19.45 0 7.633-2.684 14.15-8.05 19.55-5.434 5.367-11.95 8.05-19.55 8.05-7.6 0-14.084-2.684-19.45-8.05-5.434-5.4-8.15-11.917-8.15-19.55 0-7.6 2.717-14.083 8.15-19.45 5.366-5.4 11.85-8.1 19.45-8.1zm4.8 10.55c-1.867 1.833-2.8 4.05-2.8 6.65 0 2.6.933 4.816 2.8 6.65 1.833 1.833 4.05 2.75 6.65 2.75 2.6 0 4.816-.917 6.65-2.75 1.832-1.833 2.75-4.05 2.75-6.65 0-2.6-.918-4.816-2.75-6.65-1.834-1.867-4.05-2.8-6.65-2.8-2.6 0-4.817.933-6.65 2.8z" opacity=".2" fill="#fff"/><path d="M93.968 943.337c-5.434-5.4-11.95-8.1-19.55-8.1-7.6 0-14.084 2.7-19.45 8.1-5.434 5.367-8.15 11.85-8.15 19.45 0 7.633 2.717 14.15 8.15 19.55 5.366 5.367 11.85 8.05 19.45 8.05s14.116-2.684 19.55-8.05c5.366-5.4 8.05-11.917 8.05-19.55 0-7.6-2.684-14.083-8.05-19.45zm-52.15 19.45c0-9 3.2-16.667 9.6-23 6.334-6.367 14-9.55 23-9.55s16.7 3.184 23.1 9.55c6.334 6.333 9.5 14 9.5 23 0 9.033-3.166 16.733-9.5 23.1-6.4 6.333-14.1 9.5-23.1 9.5-9 0-16.666-3.167-23-9.5-6.4-6.367-9.6-14.067-9.6-23.1z" fill="#fff"/><path d="M76.418 952.437c0-2.6.933-4.816 2.8-6.65 1.833-1.867 4.05-2.8 6.65-2.8 2.6 0 4.816.934 6.65 2.8 1.832 1.833 2.75 4.05 2.75 6.65 0 2.6-.918 4.816-2.75 6.65-1.834 1.834-4.05 2.75-6.65 2.75-2.6 0-4.816-.917-6.65-2.75-1.867-1.834-2.8-4.05-2.8-6.65z" opacity=".302" fill="#fff"/><path d="M87.418 1005.687c-.4.4-.884.6-1.45.6-.567 0-1.05-.2-1.45-.6-.4-.4-.6-.883-.6-1.45 0-.566.2-1.05.6-1.45.4-.4.883-.6 1.45-.6.566 0 1.05.2 1.45.6.4.4.6.883.6 1.45s-.2 1.05-.6 1.45zm1.4-5.25c-.8 0-1.483-.283-2.05-.85-.566-.566-.85-1.25-.85-2.05 0-.8.283-1.483.85-2.05.566-.566 1.25-.85 2.05-.85.8 0 1.483.283 2.05.85.567.567.85 1.25.85 2.05 0 .8-.282 1.483-.85 2.05-.567.567-1.25.85-2.05.85zm-11.7.95c1.1 0 2.033.383 2.8 1.15.768.767 1.15 1.7 1.15 2.8 0 1.1-.383 2.034-1.15 2.8-.767.767-1.7 1.15-2.8 1.15-1.1 0-2.033-.383-2.8-1.15-.767-.767-1.15-1.7-1.15-2.8 0-1.1.384-2.033 1.15-2.8.766-.767 1.7-1.15 2.8-1.15z" opacity=".502" fill="#8bcfba"/></g><use xlink:href="#a"/><path d="M498.76 872.75a16.774 16.774 0 1 1-33.547 0 16.774 16.774 0 1 1 33.548 0z" fill="none" stroke="#000" stroke-width="1.8510973400000001"/><path d="M515.535 872.75a33.548 33.548 0 1 1-67.096 0 33.548 33.548 0 1 1 67.095 0z" fill="none" stroke="#000" stroke-width="1.85108823"/><path d="M532.31 872.75a50.322 50.322 0 1 1-100.645 0 50.322 50.322 0 1 1 100.644 0z" fill="none" stroke="#000" stroke-width="1.8500752999999999"/><path d="M549.083 872.75a67.096 67.096 0 1 1-134.192 0 67.096 67.096 0 1 1 134.193 0z" fill="none" stroke="#000" stroke-width="1.8490608499999999"/><path d="M565.857 872.75a83.87 83.87 0 1 1-167.74 0 83.87 83.87 0 1 1 167.74 0z" fill="none" stroke="#000" stroke-width="1.8490617599999999"/><path d="M582.63 872.75a100.644 100.644 0 1 1-201.287 0 100.644 100.644 0 1 1 201.288 0z" fill="none" stroke="#000" stroke-width="1.8531231999999997"/><path d="M599.405 872.75a117.418 117.418 0 1 1-234.837 0 117.418 117.418 0 1 1 234.837 0z" fill="none" stroke="#000" stroke-width="1.8490602"/><path d="M616.18 872.75a134.192 134.192 0 1 1-268.386 0 134.192 134.192 0 1 1 268.385 0z" fill="none" stroke="#000" stroke-width="1.8531247199999998"/><path d="M632.953 872.75a150.966 150.966 0 1 1-301.933 0 150.966 150.966 0 1 1 301.933 0z" fill="none" stroke="#000" stroke-width="1.8470294200000001"/><path transform="matrix(.37935 0 0 .38803 201.215 801.186)" d="M756.648 184.424a16.51 16.51 0 1 1-33.02 0 16.51 16.51 0 1 1 33.02 0z" stroke="#000" stroke-width="1.822"/></g></svg>