<?xml version="1.0" encoding="UTF-8" standalone="no"?>
<!-- Created with Inkscape (http://www.inkscape.org/) -->

<svg
   xmlns:dc="http://purl.org/dc/elements/1.1/"
   xmlns:cc="http://creativecommons.org/ns#"
   xmlns:rdf="http://www.w3.org/1999/02/22-rdf-syntax-ns#"
   xmlns:svg="http://www.w3.org/2000/svg"
   xmlns="http://www.w3.org/2000/svg"
   xmlns:xlink="http://www.w3.org/1999/xlink"
   xmlns:sodipodi="http://sodipodi.sourceforge.net/DTD/sodipodi-0.dtd"
   xmlns:inkscape="http://www.inkscape.org/namespaces/inkscape"
   width="980"
   height="350"
   id="svg2"
   version="1.1"
   inkscape:version="0.48.3.1 r9886"
   sodipodi:docname="integral-3.svg">
  <defs
     id="defs4" />
  <sodipodi:namedview
     id="base"
     pagecolor="#ffffff"
     bordercolor="#666666"
     borderopacity="1.0"
     inkscape:pageopacity="0.0"
     inkscape:pageshadow="2"
     inkscape:zoom="1.0599386"
     inkscape:cx="511.52057"
     inkscape:cy="171.76584"
     inkscape:document-units="px"
     inkscape:current-layer="layer1"
     showgrid="false"
     inkscape:showpageshadow="false"
     inkscape:window-width="1600"
     inkscape:window-height="876"
     inkscape:window-x="0"
     inkscape:window-y="24"
     inkscape:window-maximized="1"
     showguides="true"
     inkscape:guide-bbox="true" />
  <metadata
     id="metadata7">
    <rdf:RDF>
      <cc:Work
         rdf:about="">
        <dc:format>image/svg+xml</dc:format>
        <dc:type
           rdf:resource="http://purl.org/dc/dcmitype/StillImage" />
        <dc:title />
      </cc:Work>
    </rdf:RDF>
  </metadata>
  <g
     inkscape:label="Camada 1"
     inkscape:groupmode="layer"
     id="layer1"
     transform="translate(0,-702.36218)">
    <g
       transform="translate(-175.53169,880.43721)"
       id="g3821"
       inkscape:tile-cx="75.384625"
       inkscape:tile-cy="274.53228"
       inkscape:tile-w="67.13263"
       inkscape:tile-h="93.314508"
       inkscape:tile-x0="41.81831"
       inkscape:tile-y0="227.87503">
      <g
         id="g335">
        <path
           d="m 259.75,126.35 c 1.267,-4.067 3.8,-6.917 7.6,-8.55 6.9,6.067 9.8,11.55 8.7,16.45 -0.434,1.9 -1.233,3.417 -2.4,4.55 -1.467,0.867 -2.717,0.75 -3.75,-0.35 -0.6,-6.033 -3.984,-10.067 -10.15,-12.1 z m -31.15,13.4 c 3.9,-4.367 4.583,-9.483 2.05,-15.35 3.867,-1.767 7.684,-1.767 11.45,0 0.066,9.2 -2.116,15.017 -6.55,17.45 -1.667,0.933 -3.283,1.35 -4.85,1.25 -1.767,-0.534 -2.466,-1.65 -2.1,-3.35 z"
           id="path337"
           inkscape:connector-curvature="0"
           style="fill:#6fc4a9" />
        <path
           d="m 228.45,79.4 c 0,-5.933 2.1,-11 6.3,-15.2 4.2,-4.2 9.267,-6.3 15.2,-6.3 5.933,0 11,2.1 15.199,6.3 4.2,4.2 6.301,9.267 6.301,15.2 v 40.4 c 0,3.634 -2.101,6.733 -6.301,9.3 -4.199,2.533 -9.267,3.8 -15.199,3.8 -5.934,0 -11,-1.267 -15.2,-3.8 -4.2,-2.567 -6.3,-5.667 -6.3,-9.3 V 79.4 z"
           id="path339"
           inkscape:connector-curvature="0"
           style="fill:#6fc4a9" />
        <path
           d="m 246.15,95.75 c -1.399,0 -2.6,-0.5 -3.6,-1.5 -0.934,-0.934 -1.4,-2.066 -1.4,-3.4 0,-1.334 0.467,-2.5 1.4,-3.5 1,-0.967 2.2,-1.45 3.6,-1.45 1.334,0 2.483,0.483 3.45,1.45 1,1 1.5,2.167 1.5,3.5 0,1.333 -0.5,2.466 -1.5,3.4 -0.967,1 -2.116,1.5 -3.45,1.5 z m 12.7,-4.9 c 0,-1.333 0.467,-2.5 1.4,-3.5 1,-0.967 2.2,-1.45 3.6,-1.45 1.333,0 2.483,0.483 3.45,1.45 1,1 1.5,2.167 1.5,3.5 0,1.333 -0.5,2.466 -1.5,3.4 -0.967,1 -2.117,1.5 -3.45,1.5 -1.399,0 -2.6,-0.5 -3.6,-1.5 -0.933,-0.934 -1.4,-2.066 -1.4,-3.4 z"
           id="path341"
           inkscape:connector-curvature="0"
           style="fill:#347e67" />
        <path
           d="m 256.7,103.15 c -0.467,0.5 -1.051,0.75 -1.75,0.75 -0.7,0 -1.301,-0.25 -1.801,-0.75 -0.467,-0.466 -0.699,-1.05 -0.699,-1.75 0,-0.7 0.232,-1.3 0.699,-1.8 0.5,-0.467 1.101,-0.7 1.801,-0.7 0.699,0 1.283,0.233 1.75,0.7 0.5,0.5 0.75,1.1 0.75,1.8 0,0.7 -0.25,1.284 -0.75,1.75 z"
           id="path343"
           inkscape:connector-curvature="0"
           style="fill:#347e67" />
        <path
           d="m 219.25,121.55 c -0.467,-0.466 -0.717,-1.05 -0.75,-1.75 -0.2,-8.366 3.649,-14.1 11.55,-17.2 l 0.3,-0.1 v 9.2 c -4.667,-0.134 -6.95,2.533 -6.85,8 0,0.7 -0.233,1.3 -0.7,1.8 -0.467,0.5 -1.05,0.75 -1.75,0.75 -0.7,0 -1.3,-0.233 -1.8,-0.7 z m 50.6,-15.95 c 3.967,2.466 7.283,1.316 9.95,-3.45 0.366,-0.633 0.866,-1.05 1.5,-1.25 0.667,-0.167 1.3,-0.083 1.9,0.25 0.6,0.367 1,0.867 1.199,1.5 0.167,0.633 0.084,1.267 -0.25,1.9 -4,7.333 -10.199,10.367 -18.6,9.1 l -0.3,-0.05 4.601,-8 z"
           id="path345"
           inkscape:connector-curvature="0"
           style="fill:#6fc4a9" />
        <path
           enable-background="new    "
           d="m 249.95,54.8 c 7.6,0 14.116,2.7 19.55,8.1 5.366,5.367 8.05,11.85 8.05,19.45 0,7.633 -2.684,14.15 -8.05,19.55 -5.434,5.367 -11.95,8.05 -19.55,8.05 -7.601,0 -14.084,-2.684 -19.45,-8.05 -5.434,-5.4 -8.15,-11.917 -8.15,-19.55 0,-7.6 2.717,-14.083 8.15,-19.45 5.366,-5.4 11.85,-8.1 19.45,-8.1 z m 4.8,10.55 c -1.867,1.833 -2.8,4.05 -2.8,6.65 0,2.6 0.933,4.816 2.8,6.65 1.833,1.833 4.05,2.75 6.649,2.75 2.601,0 4.817,-0.917 6.65,-2.75 1.833,-1.833 2.75,-4.05 2.75,-6.65 0,-2.6 -0.917,-4.816 -2.75,-6.65 -1.833,-1.867 -4.05,-2.8 -6.65,-2.8 -2.599,0 -4.816,0.933 -6.649,2.8 z"
           id="path347"
           inkscape:connector-curvature="0"
           style="opacity:0.2;fill:#ffffff" />
        <path
           d="m 269.5,62.9 c -5.434,-5.4 -11.95,-8.1 -19.55,-8.1 -7.601,0 -14.084,2.7 -19.45,8.1 -5.434,5.367 -8.15,11.85 -8.15,19.45 0,7.633 2.717,14.15 8.15,19.55 5.366,5.367 11.85,8.05 19.45,8.05 7.6,0 14.116,-2.684 19.55,-8.05 5.366,-5.4 8.05,-11.917 8.05,-19.55 0,-7.6 -2.684,-14.083 -8.05,-19.45 z m -52.15,19.45 c 0,-9 3.2,-16.667 9.601,-23 6.333,-6.367 14,-9.55 23,-9.55 9,0 16.699,3.184 23.1,9.55 6.333,6.333 9.5,14 9.5,23 0,9.033 -3.167,16.733 -9.5,23.1 -6.4,6.333 -14.1,9.5 -23.1,9.5 -9,0 -16.667,-3.167 -23,-9.5 -6.401,-6.367 -9.601,-14.067 -9.601,-23.1 z"
           id="path349"
           inkscape:connector-curvature="0"
           style="fill:#ffffff" />
        <path
           enable-background="new    "
           d="m 251.95,72 c 0,-2.6 0.933,-4.816 2.8,-6.65 1.833,-1.867 4.05,-2.8 6.649,-2.8 2.601,0 4.817,0.934 6.65,2.8 1.833,1.833 2.75,4.05 2.75,6.65 0,2.6 -0.917,4.816 -2.75,6.65 -1.833,1.834 -4.049,2.75 -6.649,2.75 -2.6,0 -4.816,-0.917 -6.649,-2.75 C 252.883,76.816 251.95,74.6 251.95,72 z"
           id="path351"
           inkscape:connector-curvature="0"
           style="opacity:0.30199998;fill:#ffffff" />
        <path
           enable-background="new    "
           d="m 262.95,125.25 c -0.4,0.4 -0.884,0.6 -1.45,0.6 -0.567,0 -1.05,-0.2 -1.45,-0.6 -0.4,-0.4 -0.6,-0.883 -0.6,-1.45 0,-0.566 0.199,-1.05 0.6,-1.45 0.401,-0.4 0.883,-0.6 1.45,-0.6 0.566,0 1.05,0.2 1.45,0.6 0.399,0.4 0.6,0.883 0.6,1.45 0,0.567 -0.2,1.05 -0.6,1.45 z m 1.4,-5.25 c -0.8,0 -1.483,-0.283 -2.05,-0.85 -0.566,-0.566 -0.85,-1.25 -0.85,-2.05 0,-0.8 0.283,-1.483 0.85,-2.05 0.566,-0.566 1.25,-0.85 2.05,-0.85 0.8,0 1.483,0.283 2.05,0.85 0.567,0.567 0.851,1.25 0.851,2.05 0,0.8 -0.283,1.483 -0.851,2.05 -0.567,0.567 -1.25,0.85 -2.05,0.85 z m -11.7,0.95 c 1.101,0 2.033,0.383 2.801,1.15 0.767,0.767 1.149,1.7 1.149,2.8 0,1.1 -0.383,2.034 -1.149,2.8 -0.768,0.767 -1.7,1.15 -2.801,1.15 -1.1,0 -2.033,-0.383 -2.8,-1.15 -0.767,-0.767 -1.149,-1.7 -1.149,-2.8 0,-1.1 0.383,-2.033 1.149,-2.8 0.766,-0.767 1.7,-1.15 2.8,-1.15 z"
           id="path353"
           inkscape:connector-curvature="0"
           style="opacity:0.50199998;fill:#8bcfba" />
      </g>
    </g>
    <use
       x="0"
       y="0"
       inkscape:tiled-clone-of="#g3821"
       xlink:href="#g3821"
       id="use3011" />
    <path
       sodipodi:type="arc"
       style="fill:none;stroke:#000000;stroke-width:1.82153285;stroke-miterlimit:4;stroke-opacity:1;stroke-dasharray:none"
       id="path3853"
       sodipodi:cx="740.13721"
       sodipodi:cy="184.42438"
       sodipodi:rx="16.510389"
       sodipodi:ry="16.510389"
       d="m 756.6476,184.42438 a 16.510389,16.510389 0 1 1 -33.02078,0 16.510389,16.510389 0 1 1 33.02078,0 z"
       transform="matrix(1.0159673,0,0,1.0159673,-269.96857,685.38011)"
       inkscape:tile-cx="784.83425"
       inkscape:tile-cy="186.42573"
       inkscape:tile-w="18.128018"
       inkscape:tile-h="18.128018"
       inkscape:tile-x0="775.77024"
       inkscape:tile-y0="177.36172" />
    <path
       inkscape:tile-y0="177.36172"
       inkscape:tile-x0="775.77024"
       transform="matrix(2.0319347,0,0,2.0319347,-1021.9238,498.01097)"
       d="m 756.6476,184.42438 a 16.510389,16.510389 0 1 1 -33.02078,0 16.510389,16.510389 0 1 1 33.02078,0 z"
       sodipodi:ry="16.510389"
       sodipodi:rx="16.510389"
       sodipodi:cy="184.42438"
       sodipodi:cx="740.13721"
       id="use3857"
       style="fill:none;stroke:#000000;stroke-width:0.91076636;stroke-miterlimit:4;stroke-opacity:1;stroke-dasharray:none"
       sodipodi:type="arc" />
    <path
       inkscape:tile-y0="177.36172"
       inkscape:tile-x0="775.77024"
       transform="matrix(3.0479019,0,0,3.0479019,-1773.879,310.64187)"
       d="m 756.6476,184.42438 a 16.510389,16.510389 0 1 1 -33.02078,0 16.510389,16.510389 0 1 1 33.02078,0 z"
       sodipodi:ry="16.510389"
       sodipodi:rx="16.510389"
       sodipodi:cy="184.42438"
       sodipodi:cx="740.13721"
       id="use3859"
       style="fill:none;stroke:#000000;stroke-width:0.60717762;stroke-miterlimit:4;stroke-opacity:1;stroke-dasharray:none"
       sodipodi:type="arc" />
    <path
       inkscape:tile-y0="177.36172"
       inkscape:tile-x0="775.77024"
       transform="matrix(4.0638692,0,0,4.0638692,-2525.8341,123.27273)"
       d="m 756.6476,184.42438 a 16.510389,16.510389 0 1 1 -33.02078,0 16.510389,16.510389 0 1 1 33.02078,0 z"
       sodipodi:ry="16.510389"
       sodipodi:rx="16.510389"
       sodipodi:cy="184.42438"
       sodipodi:cx="740.13721"
       id="use3861"
       style="fill:none;stroke:#000000;stroke-width:0.45538318;stroke-miterlimit:4;stroke-opacity:1;stroke-dasharray:none"
       sodipodi:type="arc" />
    <path
       inkscape:tile-y0="177.36172"
       inkscape:tile-x0="775.77024"
       transform="matrix(5.0798365,0,0,5.0798365,-3277.7893,-64.096381)"
       d="m 756.6476,184.42438 a 16.510389,16.510389 0 1 1 -33.02078,0 16.510389,16.510389 0 1 1 33.02078,0 z"
       sodipodi:ry="16.510389"
       sodipodi:rx="16.510389"
       sodipodi:cy="184.42438"
       sodipodi:cx="740.13721"
       id="use3863"
       style="fill:none;stroke:#000000;stroke-width:0.36430657;stroke-miterlimit:4;stroke-opacity:1;stroke-dasharray:none"
       sodipodi:type="arc" />
    <path
       inkscape:tile-y0="177.36172"
       inkscape:tile-x0="775.77024"
       transform="matrix(6.0958037,0,0,6.0958037,-4029.7444,-251.46552)"
       d="m 756.6476,184.42438 a 16.510389,16.510389 0 1 1 -33.02078,0 16.510389,16.510389 0 1 1 33.02078,0 z"
       sodipodi:ry="16.510389"
       sodipodi:rx="16.510389"
       sodipodi:cy="184.42438"
       sodipodi:cx="740.13721"
       id="use3865"
       style="fill:none;stroke:#000000;stroke-width:0.30358881;stroke-miterlimit:4;stroke-opacity:1;stroke-dasharray:none"
       sodipodi:type="arc" />
    <path
       inkscape:tile-y0="177.36172"
       inkscape:tile-x0="775.77024"
       transform="matrix(7.1117709,0,0,7.1117709,-4781.6998,-438.83464)"
       d="m 756.6476,184.42438 a 16.510389,16.510389 0 1 1 -33.02078,0 16.510389,16.510389 0 1 1 33.02078,0 z"
       sodipodi:ry="16.510389"
       sodipodi:rx="16.510389"
       sodipodi:cy="184.42438"
       sodipodi:cx="740.13721"
       id="use3867"
       style="fill:none;stroke:#000000;stroke-width:0.26021898;stroke-miterlimit:4;stroke-opacity:1;stroke-dasharray:none"
       sodipodi:type="arc" />
    <path
       inkscape:tile-y0="177.36172"
       inkscape:tile-x0="775.77024"
       transform="matrix(8.1277382,0,0,8.1277382,-5533.6549,-626.20376)"
       d="m 756.6476,184.42438 a 16.510389,16.510389 0 1 1 -33.02078,0 16.510389,16.510389 0 1 1 33.02078,0 z"
       sodipodi:ry="16.510389"
       sodipodi:rx="16.510389"
       sodipodi:cy="184.42438"
       sodipodi:cx="740.13721"
       id="use3869"
       style="fill:none;stroke:#000000;stroke-width:0.22769161;stroke-miterlimit:4;stroke-opacity:1;stroke-dasharray:none"
       sodipodi:type="arc" />
    <path
       inkscape:tile-y0="177.36172"
       inkscape:tile-x0="775.77024"
       transform="matrix(9.1437055,0,0,9.1437055,-6285.6102,-813.57288)"
       d="m 756.6476,184.42438 a 16.510389,16.510389 0 1 1 -33.02078,0 16.510389,16.510389 0 1 1 33.02078,0 z"
       sodipodi:ry="16.510389"
       sodipodi:rx="16.510389"
       sodipodi:cy="184.42438"
       sodipodi:cx="740.13721"
       id="use3871"
       style="fill:none;stroke:#000000;stroke-width:0.20239253;stroke-miterlimit:4;stroke-opacity:1;stroke-dasharray:none"
       sodipodi:type="arc" />
    <path
       inkscape:tile-y0="177.36172"
       inkscape:tile-x0="775.77024"
       inkscape:tile-h="18.128018"
       inkscape:tile-w="18.128018"
       inkscape:tile-cy="186.42573"
       inkscape:tile-cx="784.83425"
       transform="matrix(0.37935047,0,0,0.38803322,201.21522,801.18648)"
       d="m 756.6476,184.42438 a 16.510389,16.510389 0 1 1 -33.02078,0 16.510389,16.510389 0 1 1 33.02078,0 z"
       sodipodi:ry="16.510389"
       sodipodi:rx="16.510389"
       sodipodi:cy="184.42438"
       sodipodi:cx="740.13721"
       id="path3913"
       style="fill:#000000;stroke:#000000;stroke-width:1.82153285000000009;stroke-miterlimit:4;stroke-opacity:1;stroke-dasharray:none;fill-opacity:1"
       sodipodi:type="arc" />
  </g>
</svg>
