<svg xmlns="http://www.w3.org/2000/svg" width="980" height="350"><path d="M93.884 318.762h-8.35l-3.55-18.3c-.3-1.8.017-3.366.95-4.7 1.1-1.434 2.55-2.133 4.35-2.1 1.867-.033 3.45.667 4.75 2.1 1.267 1.333 1.884 2.9 1.85 4.7v18.3zm-37-18.3c-.034-1.8.583-3.366 1.85-4.7 1.3-1.434 2.883-2.133 4.75-2.1 1.8-.033 3.25.667 4.35 2.1.934 1.333 1.25 2.9.95 4.7l-3.55 18.3h-8.35v-18.3z" fill="#6fc4a9"/><path d="M53.884 256.562c0-5.933 2.1-11 6.3-15.2 4.2-4.2 9.267-6.3 15.2-6.3s11 2.1 15.2 6.3c4.2 4.2 6.3 9.267 6.3 15.2v40.4c0 3.634-2.1 6.733-6.3 9.3-4.2 2.533-9.268 3.8-15.2 3.8-5.934 0-11-1.267-15.2-3.8-4.2-2.567-6.3-5.667-6.3-9.3v-40.4z" fill="#6fc4a9"/><path d="M62.984 264.512c1-.967 2.2-1.45 3.6-1.45 1.334 0 2.483.483 3.45 1.45 1 1 1.5 2.167 1.5 3.5 0 1.333-.5 2.466-1.5 3.4-.967 1-2.116 1.5-3.45 1.5-1.4 0-2.6-.5-3.6-1.5-.934-.934-1.4-2.066-1.4-3.4s.466-2.5 1.4-3.5zm21.3-1.45c1.333 0 2.483.483 3.45 1.45 1 1 1.5 2.167 1.5 3.5 0 1.333-.5 2.466-1.5 3.4-.967 1-2.117 1.5-3.45 1.5-1.4 0-2.6-.5-3.6-1.5-.934-.934-1.4-2.066-1.4-3.4s.467-2.5 1.4-3.5c1-.967 2.2-1.45 3.6-1.45zm-2.5 12.1c.233.066.434.233.6.5v.8c-.4.9-1.05 1.717-1.95 2.45-1.4 1.1-3.083 1.65-5.05 1.65-2 0-3.7-.55-5.1-1.65-1-.733-1.633-1.583-1.9-2.55-.066-.267-.033-.517.1-.75.1-.267.284-.434.55-.5l.852.1.448.55c.2.6.6 1.133 1.2 1.6 1.033.8 2.316 1.2 3.85 1.2 1.467 0 2.733-.4 3.8-1.2l1.3-1.65c.067-.267.234-.45.5-.55.267-.133.533-.133.8 0z" fill="#347e67"/><path d="M43.934 296.962c-.2-8.366 3.65-14.1 11.55-17.2l.3-.1v9.2c-4.667-.134-6.95 2.533-6.85 8 0 .7-.233 1.3-.7 1.8-.467.5-1.05.75-1.75.75s-1.3-.233-1.8-.7c-.467-.467-.717-1.05-.75-1.75zm62.15 1.75c-.5.467-1.1.7-1.8.7s-1.283-.25-1.75-.75c-.467-.5-.7-1.1-.7-1.8.1-5.467-2.183-8.134-6.85-8v-9.2l.3.1c7.9 3.1 11.75 8.833 11.55 17.2-.034.7-.284 1.283-.75 1.75z" fill="#6fc4a9"/><path d="M75.384 231.962c7.6 0 14.116 2.7 19.55 8.1 5.366 5.367 8.05 11.85 8.05 19.45 0 7.633-2.684 14.15-8.05 19.55-5.434 5.367-11.95 8.05-19.55 8.05-7.6 0-14.084-2.684-19.45-8.05-5.434-5.4-8.15-11.917-8.15-19.55 0-7.6 2.717-14.083 8.15-19.45 5.366-5.4 11.85-8.1 19.45-8.1zm4.8 10.55c-1.867 1.833-2.8 4.05-2.8 6.65 0 2.6.933 4.816 2.8 6.65 1.833 1.833 4.05 2.75 6.65 2.75 2.6 0 4.816-.917 6.65-2.75 1.832-1.833 2.75-4.05 2.75-6.65 0-2.6-.918-4.816-2.75-6.65-1.834-1.867-4.05-2.8-6.65-2.8-2.6 0-4.817.933-6.65 2.8z" opacity=".2" fill="#fff"/><path d="M94.934 240.062c-5.434-5.4-11.95-8.1-19.55-8.1-7.6 0-14.084 2.7-19.45 8.1-5.434 5.367-8.15 11.85-8.15 19.45 0 7.633 2.717 14.15 8.15 19.55 5.366 5.367 11.85 8.05 19.45 8.05s14.116-2.684 19.55-8.05c5.366-5.4 8.05-11.917 8.05-19.55 0-7.6-2.684-14.083-8.05-19.45zm-52.15 19.45c0-9 3.2-16.667 9.6-23 6.334-6.367 14-9.55 23-9.55s16.7 3.184 23.1 9.55c6.334 6.333 9.5 14 9.5 23 0 9.033-3.166 16.733-9.5 23.1-6.4 6.333-14.1 9.5-23.1 9.5-9 0-16.666-3.167-23-9.5-6.4-6.367-9.6-14.067-9.6-23.1z" fill="#fff"/><path d="M77.384 249.162c0-2.6.933-4.816 2.8-6.65 1.833-1.867 4.05-2.8 6.65-2.8 2.6 0 4.816.934 6.65 2.8 1.832 1.833 2.75 4.05 2.75 6.65 0 2.6-.918 4.816-2.75 6.65-1.834 1.834-4.05 2.75-6.65 2.75-2.6 0-4.816-.917-6.65-2.75-1.867-1.834-2.8-4.05-2.8-6.65z" opacity=".302" fill="#fff"/><path d="M91.834 296.312c-.566.567-1.25.85-2.05.85-.8 0-1.483-.283-2.05-.85-.566-.566-.85-1.25-.85-2.05 0-.8.283-1.483.85-2.05.566-.566 1.25-.85 2.05-.85.8 0 1.483.283 2.05.85.567.567.85 1.25.85 2.05 0 .8-.283 1.483-.85 2.05zm-3.45 6.1c-.4.4-.884.6-1.45.6-.567 0-1.05-.2-1.45-.6-.4-.4-.6-.883-.6-1.45 0-.566.2-1.05.6-1.45.4-.4.883-.6 1.45-.6.566 0 1.05.2 1.45.6.4.4.6.883.6 1.45s-.2 1.05-.6 1.45zm-10.3-4.3c1.1 0 2.033.383 2.8 1.15.768.767 1.15 1.7 1.15 2.8 0 1.1-.383 2.034-1.15 2.8-.767.767-1.7 1.15-2.8 1.15-1.1 0-2.033-.383-2.8-1.15-.767-.767-1.15-1.7-1.15-2.8 0-1.1.383-2.033 1.15-2.8.765-.767 1.7-1.15 2.8-1.15z" opacity=".502" fill="#8bcfba"/><path d="M701.63 318.762H308.33l98.326-151.88 98.325-151.88 98.325 151.88z" fill="#1a1a1a"/></svg>