<svg xmlns="http://www.w3.org/2000/svg" width="980" height="200"><path d="M793.5 154H890v-8h-96.5v8zM789.5 146H693v8h96.5v-8zM789.5 134v32h4v-32h-4zM689 146H492v8h197v-8zM689 134v32h4v-32h-4zM488 146H90v8h398v-8zM488 134v32h4v-32h-4zM86 134h4v32h-4zM890 134h4v32h-4z" fill="#1a1a1a"/><path d="M798.85 111c1.232-1.434 2.75-2.133 4.55-2.1 1.866-.033 3.383.667 4.55 2.1 1.2 1.333 1.7 2.9 1.5 4.7L808.1 134h-8.35l-2.2-18.3c-.134-1.8.3-3.367 1.3-4.7zM779.6 108.9c1.8-.033 3.316.667 4.55 2.1 1 1.333 1.433 2.9 1.3 4.7l-2.2 18.3h-8.35l-1.352-18.3c-.2-1.8.3-3.367 1.5-4.7 1.167-1.434 2.684-2.133 4.55-2.1zM814.95 112.1c.1-5.467-2.184-8.134-6.85-8v-9.2l.3.1c7.9 3.1 11.75 8.833 11.55 17.2-.034.7-.284 1.284-.75 1.75-.5.467-1.1.7-1.8.7s-1.283-.25-1.75-.75c-.467-.5-.7-1.1-.7-1.8zM764.35 113.9c-.467.5-1.05.75-1.75.75s-1.3-.233-1.8-.7c-.468-.466-.718-1.05-.75-1.75-.2-8.367 3.65-14.1 11.55-17.2l.3-.1v9.2c-4.667-.134-6.95 2.533-6.85 8 0 .7-.234 1.3-.7 1.8z" fill="#6fc4a9"/><path d="M776.3 56.6c4.2-4.2 9.266-6.3 15.2-6.3 5.932 0 11 2.1 15.2 6.3 4.2 4.2 6.3 9.267 6.3 15.2v40.4c0 3.633-2.1 6.733-6.3 9.3-4.2 2.533-9.267 3.8-15.2 3.8s-11-1.267-15.2-3.8c-4.2-2.567-6.3-5.667-6.3-9.3V71.8c0-5.933 2.1-11 6.3-15.2z" fill="#6fc4a9"/><path d="M801.8 79.75c1-.967 2.2-1.45 3.6-1.45 1.333 0 2.483.483 3.45 1.45 1 1 1.5 2.167 1.5 3.5 0 1.333-.5 2.466-1.5 3.4-.967 1-2.117 1.5-3.45 1.5-1.4 0-2.6-.5-3.6-1.5-.933-.934-1.4-2.067-1.4-3.4 0-1.333.467-2.5 1.4-3.5zm-.2 11.2l.5-.55c.267-.133.533-.133.8 0l.6.5v.8c-.4.9-1.05 1.717-1.95 2.45-1.4 1.1-3.084 1.65-5.05 1.65-2 0-3.7-.55-5.1-1.65-1-.733-1.634-1.583-1.9-2.55l.1-.75.55-.5.85.1.45.55c.2.6.6 1.133 1.2 1.6 1.033.8 2.316 1.2 3.85 1.2 1.467 0 2.733-.4 3.8-1.2.6-.5 1.033-1.05 1.3-1.65zM787.7 78.3c1.333 0 2.483.483 3.45 1.45 1 1 1.5 2.167 1.5 3.5 0 1.333-.5 2.466-1.5 3.4-.967 1-2.117 1.5-3.45 1.5-1.4 0-2.6-.5-3.6-1.5-.934-.934-1.4-2.067-1.4-3.4 0-1.333.467-2.5 1.4-3.5 1-.967 2.2-1.45 3.6-1.45z" fill="#347e67"/><path d="M809.6 57.75c1.833 1.833 2.75 4.05 2.75 6.65 0 2.6-.917 4.816-2.75 6.65-1.834 1.833-4.05 2.75-6.65 2.75-2.6 0-4.816-.917-6.65-2.75-1.867-1.834-2.8-4.05-2.8-6.65 0-2.6.934-4.817 2.8-6.65 1.834-1.867 4.05-2.8 6.65-2.8 2.6 0 4.816.933 6.65 2.8z" opacity=".302" fill="#fff"/><path d="M812.35 64.4c0-2.6-.917-4.817-2.75-6.65-1.834-1.867-4.05-2.8-6.65-2.8-2.6 0-4.816.934-6.65 2.8-1.867 1.833-2.8 4.05-2.8 6.65 0 2.6.934 4.816 2.8 6.65 1.834 1.833 4.05 2.75 6.65 2.75 2.6 0 4.816-.917 6.65-2.75 1.833-1.834 2.75-4.05 2.75-6.65zm-1.3-9.1c5.366 5.367 8.05 11.85 8.05 19.45 0 7.633-2.684 14.15-8.05 19.55-5.433 5.367-11.95 8.05-19.55 8.05-7.6 0-14.083-2.684-19.45-8.05-5.433-5.4-8.15-11.917-8.15-19.55 0-7.6 2.717-14.083 8.15-19.45 5.367-5.4 11.85-8.1 19.45-8.1s14.117 2.7 19.55 8.1z" opacity=".2" fill="#fff"/><path d="M819.1 74.75c0-7.6-2.684-14.083-8.05-19.45-5.433-5.4-11.95-8.1-19.55-8.1-7.6 0-14.083 2.7-19.45 8.1-5.433 5.367-8.15 11.85-8.15 19.45 0 7.633 2.717 14.15 8.15 19.55 5.367 5.367 11.85 8.05 19.45 8.05s14.117-2.684 19.55-8.05c5.367-5.4 8.05-11.917 8.05-19.55zM791.5 42.2c9 0 16.7 3.184 23.1 9.55 6.333 6.333 9.5 14 9.5 23 0 9.033-3.167 16.733-9.5 23.1-6.4 6.333-14.1 9.5-23.1 9.5-9 0-16.667-3.167-23-9.5-6.4-6.367-9.6-14.067-9.6-23.1 0-9 3.2-16.667 9.6-23 6.333-6.367 14-9.55 23-9.55z" fill="#fff"/><path d="M807.4 105.7c.8 0 1.483.284 2.05.85.565.567.85 1.25.85 2.05 0 .8-.283 1.483-.85 2.05-.567.566-1.25.85-2.05.85-.8 0-1.483-.284-2.05-.85-.567-.567-.85-1.25-.85-2.05 0-.8.283-1.483.85-2.05.566-.567 1.25-.85 2.05-.85zm-2.85 7.55c.566 0 1.05.2 1.45.6.4.4.6.883.6 1.45s-.2 1.05-.6 1.45c-.4.4-.884.6-1.45.6-.567 0-1.05-.2-1.45-.6-.4-.4-.6-.883-.6-1.45 0-.566.2-1.05.6-1.45.4-.4.882-.6 1.448-.6zm-8.85-.8c1.1 0 2.032.383 2.8 1.15.766.767 1.15 1.7 1.15 2.8 0 1.1-.385 2.033-1.15 2.8-.767.767-1.7 1.15-2.8 1.15-1.1 0-2.034-.384-2.8-1.15-.767-.766-1.15-1.7-1.15-2.8 0-1.1.384-2.033 1.15-2.8.767-.767 1.7-1.15 2.8-1.15z" opacity=".502" fill="#8bcfba"/><path d="M696.384 99.622c19.614-13.356 39.5-17.113 59.995.43" fill="none" stroke="#000" stroke-width="2.7" stroke-dasharray="10.8,2.7" stroke-dashoffset="13.5"/><text style="line-height:125%" x="261.308" y="1036.209" font-size="20" letter-spacing="0" word-spacing="0" font-family="Sans" transform="translate(0 -852.362)"><tspan x="261.308" y="1036.209" style="-inkscape-font-specification:Droid Sans" font-size="25" font-family="Droid Sans">0,5m</tspan></text><text y="1036.209" x="555.924" style="line-height:125%" font-size="20" letter-spacing="0" word-spacing="0" font-family="Sans" transform="translate(0 -852.362)"><tspan style="-inkscape-font-specification:Droid Sans" y="1036.209" x="555.924" font-size="25" font-family="Droid Sans">0,25m</tspan></text><text style="line-height:125%" x="699.789" y="1036.209" font-size="20" letter-spacing="0" word-spacing="0" font-family="Sans" transform="translate(0 -852.362)"><tspan x="699.789" y="1036.209" style="-inkscape-font-specification:Droid Sans" font-size="25" font-family="Droid Sans">0,125m</tspan></text><text y="1036.209" x="800.289" style="line-height:125%" font-size="20" letter-spacing="0" word-spacing="0" font-family="Sans" transform="translate(0 -852.362)"><tspan style="-inkscape-font-specification:Droid Sans" y="1036.209" x="800.289" font-size="25" font-family="Droid Sans">0,125m</tspan></text></svg>