<svg xmlns="http://www.w3.org/2000/svg" width="980" height="200"><path d="M492 154h398v-8H492v8zM488 146H90v8h398v-8zM488 134v32h4v-32h-4zM86 134h4v32h-4zM890 134h4v32h-4z" fill="#1a1a1a"/><path d="M106.5 134h-8.35l-3.55-18.3c-.3-1.8.017-3.366.95-4.7 1.1-1.434 2.55-2.133 4.35-2.1 1.866-.033 3.45.667 4.75 2.1 1.266 1.333 1.883 2.9 1.85 4.7V134zm-37-18.3c-.035-1.8.582-3.366 1.85-4.7 1.3-1.434 2.882-2.133 4.75-2.1 1.8-.033 3.25.667 4.35 2.1.933 1.333 1.25 2.9.95 4.7L77.85 134H69.5v-18.3z" fill="#6fc4a9"/><path d="M66.5 71.8c0-5.933 2.1-11 6.3-15.2 4.2-4.2 9.266-6.3 15.2-6.3 5.932 0 11 2.1 15.198 6.3 4.2 4.2 6.302 9.267 6.302 15.2v40.4c0 3.634-2.102 6.733-6.302 9.3-4.198 2.533-9.266 3.8-15.198 3.8-5.935 0-11-1.267-15.2-3.8-4.2-2.567-6.3-5.667-6.3-9.3V71.8z" fill="#6fc4a9"/><path d="M75.6 79.75c1-.967 2.2-1.45 3.6-1.45 1.333 0 2.482.483 3.45 1.45 1 1 1.5 2.167 1.5 3.5 0 1.333-.5 2.466-1.5 3.4-.968 1-2.117 1.5-3.45 1.5-1.4 0-2.6-.5-3.6-1.5-.935-.934-1.4-2.066-1.4-3.4s.465-2.5 1.4-3.5zm21.3-1.45c1.332 0 2.482.483 3.45 1.45 1 1 1.5 2.167 1.5 3.5 0 1.333-.5 2.466-1.5 3.4-.968 1-2.118 1.5-3.45 1.5-1.4 0-2.6-.5-3.6-1.5-.935-.934-1.4-2.066-1.4-3.4s.466-2.5 1.4-3.5c1-.967 2.2-1.45 3.6-1.45zm-2.5 12.1c.232.066.433.233.6.5v.8c-.4.9-1.05 1.717-1.95 2.45-1.4 1.1-3.084 1.65-5.05 1.65-2 0-3.7-.55-5.1-1.65-1-.733-1.634-1.583-1.9-2.55-.067-.267-.034-.517.1-.75.1-.267.283-.434.55-.5l.85.1.45.55c.2.6.6 1.133 1.2 1.6 1.032.8 2.315 1.2 3.85 1.2 1.466 0 2.732-.4 3.8-1.2l1.3-1.65c.066-.267.233-.45.5-.55.266-.133.532-.133.8 0z" fill="#347e67"/><path d="M56.55 112.2c-.2-8.366 3.648-14.1 11.55-17.2l.3-.1v9.2c-4.668-.134-6.95 2.533-6.85 8 0 .7-.234 1.3-.7 1.8-.468.5-1.05.75-1.75.75s-1.3-.233-1.8-.7c-.468-.467-.718-1.05-.75-1.75zm62.15 1.75c-.5.467-1.1.7-1.8.7s-1.284-.25-1.75-.75c-.468-.5-.7-1.1-.7-1.8.1-5.467-2.184-8.134-6.85-8v-9.2l.3.1c7.9 3.1 11.75 8.833 11.55 17.2-.035.7-.285 1.283-.75 1.75z" fill="#6fc4a9"/><path d="M88 47.2c7.6 0 14.115 2.7 19.55 8.1 5.365 5.367 8.05 11.85 8.05 19.45 0 7.633-2.685 14.15-8.05 19.55-5.435 5.367-11.95 8.05-19.55 8.05-7.602 0-14.085-2.684-19.45-8.05-5.435-5.4-8.15-11.917-8.15-19.55 0-7.6 2.716-14.083 8.15-19.45 5.365-5.4 11.85-8.1 19.45-8.1zm4.8 10.55C90.93 59.583 90 61.8 90 64.4c0 2.6.932 4.816 2.8 6.65 1.832 1.833 4.05 2.75 6.648 2.75 2.602 0 4.818-.917 6.65-2.75 1.834-1.833 2.75-4.05 2.75-6.65 0-2.6-.916-4.816-2.75-6.65-1.832-1.867-4.05-2.8-6.65-2.8-2.598 0-4.815.933-6.648 2.8z" opacity=".2" fill="#fff"/><path d="M107.55 55.3c-5.435-5.4-11.95-8.1-19.55-8.1-7.602 0-14.085 2.7-19.45 8.1-5.435 5.367-8.15 11.85-8.15 19.45 0 7.633 2.716 14.15 8.15 19.55 5.365 5.367 11.85 8.05 19.45 8.05s14.115-2.684 19.55-8.05c5.365-5.4 8.05-11.917 8.05-19.55 0-7.6-2.685-14.083-8.05-19.45zM55.4 74.75c0-9 3.2-16.667 9.6-23 6.334-6.367 14-9.55 23-9.55s16.7 3.184 23.1 9.55c6.334 6.333 9.5 14 9.5 23 0 9.033-3.166 16.733-9.5 23.1-6.4 6.333-14.1 9.5-23.1 9.5-9 0-16.666-3.167-23-9.5-6.4-6.367-9.6-14.067-9.6-23.1z" fill="#fff"/><path d="M90 64.4c0-2.6.932-4.816 2.8-6.65 1.832-1.867 4.05-2.8 6.648-2.8 2.602 0 4.818.934 6.65 2.8 1.834 1.833 2.75 4.05 2.75 6.65 0 2.6-.916 4.816-2.75 6.65-1.832 1.834-4.048 2.75-6.648 2.75-2.6 0-4.817-.917-6.65-2.75C90.933 69.216 90 67 90 64.4z" opacity=".302" fill="#fff"/><path d="M104.45 111.55c-.567.567-1.25.85-2.05.85-.8 0-1.484-.283-2.05-.85-.566-.566-.85-1.25-.85-2.05 0-.8.283-1.483.85-2.05.566-.566 1.25-.85 2.05-.85.8 0 1.482.283 2.05.85.566.567.85 1.25.85 2.05 0 .8-.283 1.483-.85 2.05zm-3.45 6.1c-.4.4-.885.6-1.45.6-.568 0-1.05-.2-1.45-.6-.4-.4-.6-.883-.6-1.45 0-.566.198-1.05.6-1.45.4-.4.882-.6 1.45-.6.565 0 1.05.2 1.45.6.398.4.6.883.6 1.45s-.2 1.05-.6 1.45zm-10.3-4.3c1.1 0 2.032.383 2.8 1.15.768.767 1.15 1.7 1.15 2.8 0 1.1-.384 2.034-1.15 2.8-.767.767-1.7 1.15-2.8 1.15-1.1 0-2.034-.383-2.8-1.15-.768-.767-1.15-1.7-1.15-2.8 0-1.1.382-2.033 1.148-2.8.767-.767 1.702-1.15 2.802-1.15z" opacity=".502" fill="#8bcfba"/><path d="M104.6 134h-8.35l-2.2-18.3c-.135-1.8.3-3.366 1.3-4.7 1.232-1.434 2.75-2.133 4.55-2.1 1.866-.033 3.383.667 4.55 2.1 1.2 1.333 1.7 2.9 1.5 4.7L104.6 134zm-36.4-18.3c.3-1.8 1.216-3.366 2.75-4.7 1.532-1.434 3.25-2.133 5.15-2.1 1.767-.033 3.083.667 3.95 2.1.666 1.333.683 2.9.05 4.7L73.05 134h-8.352l3.502-18.3z" fill="#6fc4a9"/><path d="M66.5 71.8c0-5.933 2.1-11 6.3-15.2 4.2-4.2 9.266-6.3 15.2-6.3 5.932 0 11 2.1 15.198 6.3 4.2 4.2 6.3 9.267 6.3 15.2v40.4c0 3.634-2.1 6.733-6.3 9.3-4.2 2.533-9.267 3.8-15.2 3.8s-11-1.267-15.2-3.8c-4.2-2.567-6.3-5.667-6.3-9.3V71.8z" fill="#6fc4a9"/><path d="M96.9 83.25c0-1.333.466-2.5 1.4-3.5 1-.967 2.2-1.45 3.6-1.45 1.332 0 2.482.483 3.45 1.45 1 1 1.5 2.167 1.5 3.5 0 1.333-.5 2.466-1.5 3.4-.968 1-2.118 1.5-3.45 1.5-1.4 0-2.6-.5-3.6-1.5-.934-.934-1.4-2.066-1.4-3.4zm-9.25-3.5c1 1 1.5 2.167 1.5 3.5 0 1.333-.5 2.466-1.5 3.4-.968 1-2.117 1.5-3.45 1.5-1.4 0-2.6-.5-3.6-1.5-.935-.934-1.4-2.066-1.4-3.4s.466-2.5 1.4-3.5c1-.967 2.2-1.45 3.6-1.45 1.333 0 2.482.483 3.45 1.45zM99.4 90.4c.232.066.433.233.6.5v.8c-.4.9-1.05 1.717-1.95 2.45-1.4 1.1-3.084 1.65-5.05 1.65-2 0-3.7-.55-5.1-1.65-1-.733-1.634-1.583-1.9-2.55-.067-.267-.034-.517.1-.75.1-.267.283-.434.55-.5l.85.1.45.55c.2.6.6 1.133 1.2 1.6 1.033.8 2.316 1.2 3.85 1.2 1.467 0 2.733-.4 3.8-1.2.6-.5 1.034-1.05 1.3-1.65.067-.267.234-.45.5-.55.266-.133.532-.133.8 0z" fill="#347e67"/><path d="M115.7 113.95c-.5.467-1.1.7-1.8.7s-1.284-.25-1.75-.75c-.468-.5-.7-1.1-.7-1.8.1-5.467-2.184-8.134-6.85-8v-9.2l.3.1c7.9 3.1 11.75 8.833 11.55 17.2-.035.7-.285 1.283-.75 1.75zm-56.6.7c-.7 0-1.3-.233-1.8-.7-.467-.466-.717-1.05-.75-1.75-.2-8.366 3.65-14.1 11.55-17.2l.3-.1v9.2c-4.668-.134-6.95 2.533-6.85 8 0 .7-.233 1.3-.7 1.8-.468.5-1.05.75-1.75.75z" fill="#6fc4a9"/><path d="M90 64.4c0-2.6.932-4.816 2.8-6.65 1.832-1.867 4.05-2.8 6.648-2.8 2.6 0 4.817.934 6.65 2.8 1.833 1.833 2.75 4.05 2.75 6.65 0 2.6-.917 4.816-2.75 6.65-1.833 1.834-4.05 2.75-6.65 2.75-2.6 0-4.815-.917-6.648-2.75C90.932 69.216 90 67 90 64.4z" opacity=".302" fill="#fff"/><path d="M92.8 57.75C90.93 59.583 90 61.8 90 64.4c0 2.6.932 4.816 2.8 6.65 1.832 1.833 4.05 2.75 6.648 2.75 2.602 0 4.818-.917 6.65-2.75 1.834-1.833 2.75-4.05 2.75-6.65 0-2.6-.916-4.816-2.75-6.65-1.832-1.867-4.05-2.8-6.65-2.8-2.598 0-4.815.933-6.648 2.8zM88 47.2c7.6 0 14.115 2.7 19.55 8.1 5.365 5.367 8.05 11.85 8.05 19.45 0 7.633-2.685 14.15-8.05 19.55-5.435 5.367-11.95 8.05-19.55 8.05-7.602 0-14.085-2.684-19.45-8.05-5.435-5.4-8.15-11.917-8.15-19.55 0-7.6 2.716-14.083 8.15-19.45 5.365-5.4 11.85-8.1 19.45-8.1z" opacity=".2" fill="#fff"/><path d="M107.55 55.3c-5.435-5.4-11.95-8.1-19.55-8.1-7.602 0-14.085 2.7-19.45 8.1-5.435 5.367-8.15 11.85-8.15 19.45 0 7.633 2.716 14.15 8.15 19.55 5.365 5.367 11.85 8.05 19.45 8.05s14.115-2.684 19.55-8.05c5.365-5.4 8.05-11.917 8.05-19.55 0-7.6-2.685-14.083-8.05-19.45zM55.4 74.75c0-9 3.2-16.667 9.6-23 6.334-6.367 14-9.55 23-9.55s16.7 3.184 23.1 9.55c6.334 6.333 9.5 14 9.5 23 0 9.033-3.166 16.733-9.5 23.1-6.4 6.333-14.1 9.5-23.1 9.5-9 0-16.666-3.167-23-9.5-6.4-6.367-9.6-14.067-9.6-23.1z" fill="#fff"/><path d="M102.4 112.4c-.8 0-1.484-.283-2.05-.85-.567-.566-.85-1.25-.85-2.05 0-.8.282-1.483.85-2.05.565-.566 1.25-.85 2.05-.85.8 0 1.482.283 2.05.85.566.567.85 1.25.85 2.05 0 .8-.283 1.483-.85 2.05-.568.567-1.25.85-2.05.85zm-1.4 5.25c-.4.4-.885.6-1.45.6-.568 0-1.05-.2-1.45-.6-.4-.4-.6-.883-.6-1.45 0-.566.198-1.05.6-1.45.4-.4.882-.6 1.45-.6.565 0 1.05.2 1.45.6.398.4.6.883.6 1.45s-.2 1.05-.6 1.45zm-10.3-4.3c1.1 0 2.032.383 2.8 1.15.767.767 1.15 1.7 1.15 2.8 0 1.1-.384 2.034-1.15 2.8-.768.767-1.7 1.15-2.8 1.15-1.1 0-2.034-.383-2.8-1.15-.768-.767-1.15-1.7-1.15-2.8 0-1.1.383-2.033 1.15-2.8.765-.767 1.7-1.15 2.8-1.15z" opacity=".502" fill="#8bcfba"/><text y="1036.209" x="261.308" style="line-height:125%" font-size="20" letter-spacing="0" word-spacing="0" font-family="Sans" transform="translate(0 -852.362)"><tspan style="-inkscape-font-specification:Droid Sans" y="1036.209" x="261.308" font-size="25" font-family="Droid Sans">0,5m</tspan></text><text style="line-height:125%" x="663.308" y="1036.209" font-size="20" letter-spacing="0" word-spacing="0" font-family="Sans" transform="translate(0 -852.362)"><tspan x="663.308" y="1036.209" style="-inkscape-font-specification:Droid Sans" font-size="25" font-family="Droid Sans">0,5m</tspan></text></svg>