<svg xmlns="http://www.w3.org/2000/svg" width="980" height="200"><path d="M693 154h197v-8H693v8zM689 146H492v8h197v-8zM689 134v32h4v-32h-4zM488 146H90v8h398v-8zM488 134v32h4v-32h-4zM86 134h4v32h-4zM890 134h4v32h-4z" fill="#1a1a1a"/><path d="M446.444 99.726v-40.4c0-5.933 2.1-11 6.3-15.2 4.2-4.2 9.268-6.3 15.2-6.3 5.934 0 11 2.1 15.2 6.3 4.2 4.2 6.3 9.267 6.3 15.2v40.4c0 3.634-2.1 6.733-6.3 9.3-4.2 2.533-9.267 3.8-15.2 3.8s-11-1.267-15.2-3.8c-4.2-2.567-6.3-5.666-6.3-9.3z" fill="#6fc4a9"/><path d="M460.545 67.276c1-.967 2.2-1.45 3.6-1.45 1.333 0 2.483.483 3.45 1.45 1 1 1.5 2.167 1.5 3.5 0 1.333-.5 2.466-1.5 3.4-.967 1-2.117 1.5-3.45 1.5-1.4 0-2.6-.5-3.6-1.5-.934-.934-1.4-2.066-1.4-3.4s.466-2.5 1.4-3.5zm12.4 8.05c1.966 0 3.65.55 5.05 1.65.9.733 1.55 1.55 1.95 2.45v.8l-.6.5c-.268.134-.534.134-.8 0l-.5-.55c-.268-.6-.7-1.15-1.3-1.65-1.068-.8-2.335-1.2-3.802-1.2-1.533 0-2.816.4-3.85 1.2-.6.466-1 1-1.2 1.6l-.45.55-.85.1-.55-.5c-.134-.233-.167-.483-.1-.75.266-.967.9-1.817 1.9-2.55 1.402-1.1 3.1-1.65 5.1-1.65zm12.35-1.15c-.967 1-2.117 1.5-3.45 1.5-1.4 0-2.6-.5-3.6-1.5-.934-.934-1.4-2.066-1.4-3.4s.467-2.5 1.4-3.5c1-.967 2.2-1.45 3.6-1.45 1.333 0 2.483.483 3.45 1.45 1 1 1.5 2.167 1.5 3.5 0 1.333-.5 2.466-1.5 3.4z" fill="#347e67"/><path d="M432.995 88.376c5.767-6.034 12.533-7.367 20.3-4l.3.15-6.5 6.5c-3.2-3.4-6.7-3.117-10.5.85-.5.5-1.083.75-1.75.75-.7.033-1.3-.2-1.8-.7-.5-.5-.75-1.1-.75-1.8 0-.634.233-1.217.7-1.75zm63.3 3.45c-3.767-3.933-7.25-4.2-10.45-.8l-6.5-6.5c.066-.1.15-.167.25-.2 7.767-3.367 14.533-2.033 20.3 4 .467.534.717 1.133.75 1.8-.033.667-.3 1.25-.8 1.75s-1.1.733-1.8.7c-.667 0-1.25-.25-1.75-.75z" fill="#6fc4a9"/><path d="M469.944 51.926c0-2.6.934-4.816 2.8-6.65 1.834-1.867 4.05-2.8 6.65-2.8 2.6 0 4.816.934 6.65 2.8 1.833 1.833 2.75 4.05 2.75 6.65 0 2.6-.917 4.816-2.75 6.65-1.834 1.833-4.05 2.75-6.65 2.75-2.6 0-4.816-.917-6.65-2.75-1.866-1.834-2.8-4.05-2.8-6.65z" opacity=".302" fill="#fff"/><path d="M472.745 45.276c-1.867 1.833-2.8 4.05-2.8 6.65 0 2.6.933 4.816 2.8 6.65 1.833 1.833 4.05 2.75 6.65 2.75 2.6 0 4.815-.917 6.65-2.75 1.832-1.833 2.75-4.05 2.75-6.65 0-2.6-.918-4.816-2.75-6.65-1.835-1.867-4.052-2.8-6.65-2.8-2.6 0-4.817.933-6.65 2.8zm-24.25-2.45c5.366-5.4 11.85-8.1 19.45-8.1s14.116 2.7 19.55 8.1c5.366 5.367 8.05 11.85 8.05 19.45 0 7.633-2.684 14.15-8.05 19.55-5.434 5.367-11.95 8.05-19.55 8.05-7.6 0-14.084-2.684-19.45-8.05-5.434-5.4-8.15-11.917-8.15-19.55 0-7.6 2.717-14.083 8.15-19.45z" opacity=".2" fill="#fff"/><path d="M467.944 34.726c-7.6 0-14.083 2.7-19.45 8.1-5.433 5.367-8.15 11.85-8.15 19.45 0 7.633 2.718 14.15 8.15 19.55 5.367 5.367 11.85 8.05 19.45 8.05s14.117-2.684 19.55-8.05c5.367-5.4 8.05-11.917 8.05-19.55 0-7.6-2.683-14.083-8.05-19.45-5.432-5.4-11.95-8.1-19.55-8.1zm-32.6 27.55c0-9 3.2-16.667 9.6-23 6.335-6.367 14-9.55 23-9.55s16.7 3.184 23.102 9.55c6.333 6.333 9.5 14 9.5 23 0 9.033-3.167 16.733-9.5 23.1-6.4 6.333-14.1 9.5-23.1 9.5-9 0-16.667-3.167-23-9.5-6.4-6.367-9.6-14.067-9.6-23.1z" fill="#fff"/><path d="M495.095 116.676c-.434 1.9-1.233 3.417-2.4 4.55-1.467.867-2.717.75-3.75-.35-.6-6.034-3.983-10.067-10.15-12.1 1.268-4.067 3.8-6.917 7.6-8.55 6.9 6.067 9.8 11.55 8.7 16.45zm-35.2-16.45c6.9 6.067 9.8 11.55 8.7 16.45-.434 1.9-1.233 3.417-2.4 4.55-1.467.867-2.717.75-3.75-.35-.6-6.034-3.983-10.067-10.15-12.1 1.267-4.067 3.8-6.916 7.6-8.55z" fill="#6fc4a9"/><path d="M479.295 99.076c-.567-.566-.85-1.25-.85-2.05 0-.8.282-1.483.85-2.05.566-.566 1.25-.85 2.05-.85.8 0 1.483.283 2.05.85.566.567.85 1.25.85 2.05 0 .8-.283 1.483-.85 2.05-.566.567-1.25.85-2.05.85-.8 0-1.484-.283-2.05-.85zm-.8 6.7c-.567 0-1.05-.2-1.45-.6-.4-.4-.6-.883-.6-1.45 0-.566.2-1.05.6-1.45.4-.4.883-.6 1.45-.6.566 0 1.05.2 1.45.6.4.4.6.883.6 1.45s-.2 1.05-.6 1.45c-.4.4-.883.6-1.45.6zm-8.85-4.9c1.1 0 2.033.383 2.8 1.15.767.767 1.15 1.7 1.15 2.8 0 1.1-.384 2.034-1.15 2.8-.766.766-1.7 1.15-2.8 1.15-1.1 0-2.033-.383-2.8-1.15-.767-.767-1.15-1.7-1.15-2.8 0-1.1.384-2.033 1.15-2.8.766-.767 1.7-1.15 2.8-1.15z" opacity=".502" fill="#8bcfba"/><path d="M120.146 76.896c98.957-27.03 199.294-34.634 302.696.872" fill="none" stroke="#000" stroke-width="2.771" stroke-dasharray="11.084,2.771" stroke-dashoffset="13.855"/><text style="line-height:125%" x="261.308" y="1036.209" font-size="20" letter-spacing="0" word-spacing="0" font-family="Sans" transform="translate(0 -852.362)"><tspan x="261.308" y="1036.209" style="-inkscape-font-specification:Droid Sans" font-size="25" font-family="Droid Sans">0,5m</tspan></text><text y="1036.209" x="555.924" style="line-height:125%" font-size="20" letter-spacing="0" word-spacing="0" font-family="Sans" transform="translate(0 -852.362)"><tspan style="-inkscape-font-specification:Droid Sans" y="1036.209" x="555.924" font-size="25" font-family="Droid Sans">0,25m</tspan></text><text style="line-height:125%" x="756.924" y="1036.209" font-size="20" letter-spacing="0" word-spacing="0" font-family="Sans" transform="translate(0 -852.362)"><tspan x="756.924" y="1036.209" style="-inkscape-font-specification:Droid Sans" font-size="25" font-family="Droid Sans">0,25m</tspan></text></svg>