<svg xmlns="http://www.w3.org/2000/svg" width="980" height="200"><path d="M843.75 154H890v-8h-46.25v8zM839.75 146H793.5v8h46.25v-8zM839.75 134v32h4v-32h-4zM789.5 146H693v8h96.5v-8zM789.5 134v32h4v-32h-4zM689 146H492v8h197v-8zM689 134v32h4v-32h-4zM488 146H90v8h398v-8zM488 134v32h4v-32h-4zM86 134h4v32h-4zM890 134h4v32h-4z" fill="#1a1a1a"/><path d="M791.235 96.486c5.718-5.473 11.515-7.013 17.49.177" fill="none" stroke="#000" stroke-width="2.883" stroke-dasharray="11.53110938, 2.88277734" stroke-dashoffset="14.414"/><text style="line-height:125%" x="261.308" y="1036.209" font-size="20" letter-spacing="0" word-spacing="0" font-family="Sans" transform="translate(0 -852.362)"><tspan x="261.308" y="1036.209" style="-inkscape-font-specification:Droid Sans" font-size="25" font-family="Droid Sans">0,5m</tspan></text><text y="1036.209" x="555.924" style="line-height:125%" font-size="20" letter-spacing="0" word-spacing="0" font-family="Sans" transform="translate(0 -852.362)"><tspan style="-inkscape-font-specification:Droid Sans" y="1036.209" x="555.924" font-size="25" font-family="Droid Sans">0,25m</tspan></text><text style="line-height:125%" x="699.789" y="1036.209" font-size="20" letter-spacing="0" word-spacing="0" font-family="Sans" transform="translate(0 -852.362)"><tspan x="699.789" y="1036.209" style="-inkscape-font-specification:Droid Sans" font-size="25" font-family="Droid Sans">0,125m</tspan></text><text y="1043.295" x="793.404" style="line-height:125%" font-size="20" letter-spacing="0" word-spacing="0" font-family="Sans" transform="translate(0 -852.362)"><tspan style="-inkscape-font-specification:Droid Sans" y="1043.295" x="793.404" font-size="25" font-family="Droid Sans">0,0625m</tspan></text><path d="M850.584 117.993c1.267-4.067 3.8-6.917 7.6-8.55 6.9 6.067 9.8 11.55 8.7 16.45-.434 1.9-1.233 3.417-2.4 4.55-1.467.867-2.717.75-3.75-.35-.6-6.033-3.984-10.067-10.15-12.1zm-31.15 13.4c3.9-4.367 4.583-9.483 2.05-15.35 3.867-1.767 7.684-1.767 11.45 0 .066 9.2-2.116 15.017-6.55 17.45-1.667.933-3.283 1.35-4.85 1.25-1.767-.534-2.466-1.65-2.1-3.35z" fill="#6fc4a9"/><path d="M819.284 71.043c0-5.933 2.1-11 6.3-15.2 4.2-4.2 9.267-6.3 15.2-6.3s11 2.1 15.2 6.3c4.2 4.2 6.3 9.267 6.3 15.2v40.4c0 3.634-2.1 6.733-6.3 9.3-4.2 2.533-9.268 3.8-15.2 3.8-5.934 0-11-1.267-15.2-3.8-4.2-2.567-6.3-5.667-6.3-9.3v-40.4z" fill="#6fc4a9"/><path d="M836.984 87.393c-1.4 0-2.6-.5-3.6-1.5-.934-.934-1.4-2.066-1.4-3.4s.467-2.5 1.4-3.5c1-.967 2.2-1.45 3.6-1.45 1.334 0 2.483.483 3.45 1.45 1 1 1.5 2.167 1.5 3.5 0 1.333-.5 2.466-1.5 3.4-.967 1-2.116 1.5-3.45 1.5zm12.7-4.9c0-1.333.467-2.5 1.4-3.5 1-.967 2.2-1.45 3.6-1.45 1.333 0 2.483.483 3.45 1.45 1 1 1.5 2.167 1.5 3.5 0 1.333-.5 2.466-1.5 3.4-.967 1-2.117 1.5-3.45 1.5-1.4 0-2.6-.5-3.6-1.5-.933-.934-1.4-2.066-1.4-3.4zM847.534 94.793c-.467.5-1.05.75-1.75.75s-1.3-.25-1.8-.75c-.468-.466-.7-1.05-.7-1.75s.232-1.3.7-1.8c.5-.467 1.1-.7 1.8-.7s1.283.233 1.75.7c.5.5.75 1.1.75 1.8s-.25 1.284-.75 1.75z" fill="#347e67"/><path d="M810.084 113.193c-.467-.466-.717-1.05-.75-1.75-.2-8.366 3.65-14.1 11.55-17.2l.3-.1v9.2c-4.667-.134-6.95 2.533-6.85 8 0 .7-.233 1.3-.7 1.8-.467.5-1.05.75-1.75.75s-1.3-.233-1.8-.7zm50.6-15.95c3.967 2.466 7.283 1.316 9.95-3.45.366-.633.866-1.05 1.5-1.25.667-.167 1.3-.083 1.9.25.6.367 1 .867 1.2 1.5.166.633.083 1.267-.25 1.9-4 7.333-10.2 10.367-18.6 9.1l-.3-.05 4.6-8z" fill="#6fc4a9"/><path d="M840.784 46.443c7.6 0 14.116 2.7 19.55 8.1 5.366 5.367 8.05 11.85 8.05 19.45 0 7.633-2.684 14.15-8.05 19.55-5.434 5.367-11.95 8.05-19.55 8.05-7.6 0-14.084-2.684-19.45-8.05-5.434-5.4-8.15-11.917-8.15-19.55 0-7.6 2.717-14.083 8.15-19.45 5.366-5.4 11.85-8.1 19.45-8.1zm4.8 10.55c-1.867 1.833-2.8 4.05-2.8 6.65 0 2.6.933 4.816 2.8 6.65 1.833 1.833 4.05 2.75 6.65 2.75 2.6 0 4.816-.917 6.65-2.75 1.832-1.833 2.75-4.05 2.75-6.65 0-2.6-.918-4.816-2.75-6.65-1.834-1.867-4.05-2.8-6.65-2.8-2.6 0-4.817.933-6.65 2.8z" opacity=".2" fill="#fff"/><path d="M860.334 54.543c-5.434-5.4-11.95-8.1-19.55-8.1-7.6 0-14.084 2.7-19.45 8.1-5.434 5.367-8.15 11.85-8.15 19.45 0 7.633 2.717 14.15 8.15 19.55 5.366 5.367 11.85 8.05 19.45 8.05s14.116-2.684 19.55-8.05c5.366-5.4 8.05-11.917 8.05-19.55 0-7.6-2.684-14.083-8.05-19.45zm-52.15 19.45c0-9 3.2-16.667 9.6-23 6.334-6.367 14-9.55 23-9.55s16.7 3.184 23.1 9.55c6.334 6.333 9.5 14 9.5 23 0 9.033-3.166 16.733-9.5 23.1-6.4 6.333-14.1 9.5-23.1 9.5-9 0-16.666-3.167-23-9.5-6.4-6.367-9.6-14.067-9.6-23.1z" fill="#fff"/><path d="M842.784 63.643c0-2.6.933-4.816 2.8-6.65 1.833-1.867 4.05-2.8 6.65-2.8 2.6 0 4.816.934 6.65 2.8 1.832 1.833 2.75 4.05 2.75 6.65 0 2.6-.918 4.816-2.75 6.65-1.834 1.834-4.05 2.75-6.65 2.75-2.6 0-4.816-.917-6.65-2.75-1.867-1.834-2.8-4.05-2.8-6.65z" opacity=".302" fill="#fff"/><path d="M853.784 116.893c-.4.4-.884.6-1.45.6-.567 0-1.05-.2-1.45-.6-.4-.4-.6-.883-.6-1.45 0-.566.2-1.05.6-1.45.4-.4.883-.6 1.45-.6.566 0 1.05.2 1.45.6.4.4.6.883.6 1.45s-.2 1.05-.6 1.45zm1.4-5.25c-.8 0-1.483-.283-2.05-.85-.566-.566-.85-1.25-.85-2.05 0-.8.283-1.483.85-2.05.566-.566 1.25-.85 2.05-.85.8 0 1.483.283 2.05.85.567.567.85 1.25.85 2.05 0 .8-.282 1.483-.85 2.05-.567.567-1.25.85-2.05.85zm-11.7.95c1.1 0 2.033.383 2.8 1.15.768.767 1.15 1.7 1.15 2.8 0 1.1-.383 2.034-1.15 2.8-.767.767-1.7 1.15-2.8 1.15-1.1 0-2.033-.383-2.8-1.15-.767-.767-1.15-1.7-1.15-2.8 0-1.1.384-2.033 1.15-2.8.766-.767 1.7-1.15 2.8-1.15z" opacity=".502" fill="#8bcfba"/></svg>