<?xml version="1.0" encoding="UTF-8" standalone="no"?>
<!-- Created with Inkscape (http://www.inkscape.org/) -->

<svg
   xmlns:dc="http://purl.org/dc/elements/1.1/"
   xmlns:cc="http://creativecommons.org/ns#"
   xmlns:rdf="http://www.w3.org/1999/02/22-rdf-syntax-ns#"
   xmlns:svg="http://www.w3.org/2000/svg"
   xmlns="http://www.w3.org/2000/svg"
   xmlns:sodipodi="http://sodipodi.sourceforge.net/DTD/sodipodi-0.dtd"
   xmlns:inkscape="http://www.inkscape.org/namespaces/inkscape"
   width="980"
   height="200"
   id="svg2"
   version="1.1"
   inkscape:version="0.48.3.1 r9886"
   sodipodi:docname="reta-3.svg">
  <defs
     id="defs4" />
  <sodipodi:namedview
     id="base"
     pagecolor="#ffffff"
     bordercolor="#666666"
     borderopacity="1.0"
     inkscape:pageopacity="0.0"
     inkscape:pageshadow="2"
     inkscape:zoom="1.6227548"
     inkscape:cx="575.37511"
     inkscape:cy="151.83922"
     inkscape:document-units="px"
     inkscape:current-layer="layer1"
     showgrid="false"
     inkscape:showpageshadow="false"
     inkscape:window-width="1600"
     inkscape:window-height="876"
     inkscape:window-x="0"
     inkscape:window-y="24"
     inkscape:window-maximized="1" />
  <metadata
     id="metadata7">
    <rdf:RDF>
      <cc:Work
         rdf:about="">
        <dc:format>image/svg+xml</dc:format>
        <dc:type
           rdf:resource="http://purl.org/dc/dcmitype/StillImage" />
        <dc:title />
      </cc:Work>
    </rdf:RDF>
  </metadata>
  <g
     inkscape:label="Camada 1"
     inkscape:groupmode="layer"
     id="layer1"
     transform="translate(0,-852.36218)">
    <path
       style="fill:#1a1a1a;fill-opacity:1;stroke:none"
       d="M 693 154 L 890 154 L 890 146 L 693 146 L 693 154 z "
       id="path3015"
       transform="translate(0,852.36218)" />
    <path
       style="fill:#1a1a1a;fill-opacity:1;stroke:none"
       d="M 689 146 L 492 146 L 492 154 L 689 154 L 689 146 z "
       id="path3013"
       transform="translate(0,852.36218)" />
    <path
       style="fill:#1a1a1a;fill-opacity:1;stroke:none"
       d="m 689,986.36217 0,32.00003 4,0 0,-32.00003 -4,0 z"
       id="path3199"
       inkscape:connector-curvature="0" />
    <path
       style="fill:#1a1a1a;fill-opacity:1;stroke:none"
       d="M 488 146 L 90 146 L 90 154 L 488 154 L 488 146 z "
       id="path3197"
       transform="translate(0,852.36218)" />
    <path
       style="fill:#1a1a1a;fill-opacity:1;stroke:none"
       d="m 488,986.36217 0,32.00003 4,0 0,-32.00003 -4,0 z"
       id="rect2987"
       inkscape:connector-curvature="0" />
    <rect
       style="fill:#1a1a1a;fill-opacity:1;stroke:none"
       id="rect2989"
       width="4"
       height="32"
       x="86"
       y="986.36218" />
    <rect
       y="986.36218"
       x="890"
       height="32"
       width="4"
       id="rect3012"
       style="fill:#1a1a1a;fill-opacity:1;stroke:none" />
    <g
       transform="translate(-105.48071,832.56133)"
       id="g3811">
      <g
         transform="translate(158.4755,-0.2730166)"
         id="g3843">
        <path
           style="fill:#6fc4a9"
           inkscape:connector-curvature="0"
           id="path51"
           d="M 393.449,119.8 V 79.4 c 0,-5.933 2.101,-11 6.301,-15.2 4.199,-4.2 9.267,-6.3 15.199,-6.3 5.934,0 11,2.1 15.2,6.3 4.2,4.2 6.3,9.267 6.3,15.2 v 40.4 c 0,3.634 -2.1,6.733 -6.3,9.3 -4.2,2.533 -9.267,3.8 -15.2,3.8 -5.933,0 -11,-1.267 -15.199,-3.8 -4.2,-2.567 -6.301,-5.666 -6.301,-9.3 z" />
        <path
           style="fill:#347e67"
           inkscape:connector-curvature="0"
           id="path53"
           d="m 407.55,87.35 c 1,-0.967 2.2,-1.45 3.6,-1.45 1.333,0 2.483,0.483 3.45,1.45 1,1 1.5,2.167 1.5,3.5 0,1.333 -0.5,2.466 -1.5,3.4 -0.967,1 -2.117,1.5 -3.45,1.5 -1.399,0 -2.6,-0.5 -3.6,-1.5 -0.934,-0.934 -1.4,-2.066 -1.4,-3.4 0,-1.334 0.466,-2.5 1.4,-3.5 z m 12.399,8.05 c 1.967,0 3.65,0.55 5.051,1.65 0.899,0.733 1.55,1.55 1.949,2.45 v 0.8 l -0.6,0.5 c -0.267,0.134 -0.533,0.134 -0.8,0 l -0.5,-0.55 c -0.267,-0.6 -0.7,-1.15 -1.3,-1.65 -1.067,-0.8 -2.334,-1.2 -3.801,-1.2 -1.533,0 -2.816,0.4 -3.85,1.2 -0.6,0.466 -1,1 -1.2,1.6 l -0.45,0.55 -0.85,0.1 -0.55,-0.5 c -0.134,-0.233 -0.167,-0.483 -0.101,-0.75 0.267,-0.967 0.9,-1.817 1.9,-2.55 1.403,-1.1 3.102,-1.65 5.102,-1.65 z M 432.3,94.25 c -0.967,1 -2.117,1.5 -3.45,1.5 -1.4,0 -2.6,-0.5 -3.6,-1.5 -0.934,-0.934 -1.4,-2.066 -1.4,-3.4 0,-1.334 0.467,-2.5 1.4,-3.5 1,-0.967 2.199,-1.45 3.6,-1.45 1.333,0 2.483,0.483 3.45,1.45 1,1 1.5,2.167 1.5,3.5 0,1.333 -0.5,2.466 -1.5,3.4 z" />
        <path
           style="fill:#6fc4a9"
           inkscape:connector-curvature="0"
           id="path55"
           d="m 380,108.45 c 5.767,-6.034 12.533,-7.367 20.3,-4 l 0.3,0.15 -6.5,6.5 c -3.2,-3.4 -6.7,-3.117 -10.5,0.85 -0.5,0.5 -1.083,0.75 -1.75,0.75 -0.7,0.033 -1.3,-0.2 -1.8,-0.7 -0.5,-0.5 -0.75,-1.1 -0.75,-1.8 0,-0.634 0.233,-1.217 0.7,-1.75 z m 63.3,3.45 c -3.767,-3.933 -7.25,-4.2 -10.45,-0.8 l -6.5,-6.5 c 0.066,-0.1 0.15,-0.167 0.25,-0.2 7.767,-3.367 14.533,-2.033 20.3,4 0.467,0.534 0.717,1.133 0.75,1.8 -0.033,0.667 -0.3,1.25 -0.8,1.75 -0.5,0.5 -1.1,0.733 -1.8,0.7 -0.667,0 -1.25,-0.25 -1.75,-0.75 z" />
        <path
           style="opacity:0.30199998;fill:#ffffff"
           inkscape:connector-curvature="0"
           id="path57"
           d="m 416.949,72 c 0,-2.6 0.934,-4.816 2.801,-6.65 1.833,-1.867 4.05,-2.8 6.649,-2.8 2.601,0 4.816,0.934 6.65,2.8 1.833,1.833 2.75,4.05 2.75,6.65 0,2.6 -0.917,4.816 -2.75,6.65 -1.834,1.833 -4.051,2.75 -6.65,2.75 -2.599,0 -4.816,-0.917 -6.649,-2.75 -1.867,-1.834 -2.801,-4.05 -2.801,-6.65 z"
           enable-background="new    " />
        <path
           style="opacity:0.2;fill:#ffffff"
           inkscape:connector-curvature="0"
           id="path59"
           d="m 419.75,65.35 c -1.867,1.833 -2.801,4.05 -2.801,6.65 0,2.6 0.934,4.816 2.801,6.65 1.833,1.833 4.05,2.75 6.649,2.75 2.601,0 4.816,-0.917 6.65,-2.75 1.833,-1.833 2.75,-4.05 2.75,-6.65 0,-2.6 -0.917,-4.816 -2.75,-6.65 -1.834,-1.867 -4.051,-2.8 -6.65,-2.8 -2.599,0 -4.816,0.933 -6.649,2.8 z M 395.5,62.9 c 5.366,-5.4 11.85,-8.1 19.449,-8.1 7.601,0 14.117,2.7 19.551,8.1 5.366,5.367 8.05,11.85 8.05,19.45 0,7.633 -2.684,14.15 -8.05,19.55 -5.434,5.367 -11.95,8.05 -19.551,8.05 -7.6,0 -14.083,-2.684 -19.449,-8.05 -5.434,-5.4 -8.15,-11.917 -8.15,-19.55 0,-7.6 2.717,-14.083 8.15,-19.45 z"
           enable-background="new    " />
        <path
           style="fill:#ffffff"
           inkscape:connector-curvature="0"
           id="path61"
           d="m 414.949,54.8 c -7.6,0 -14.083,2.7 -19.449,8.1 -5.434,5.367 -8.15,11.85 -8.15,19.45 0,7.633 2.717,14.15 8.15,19.55 5.366,5.367 11.85,8.05 19.449,8.05 7.601,0 14.117,-2.684 19.551,-8.05 5.366,-5.4 8.05,-11.917 8.05,-19.55 0,-7.6 -2.684,-14.083 -8.05,-19.45 -5.433,-5.4 -11.95,-8.1 -19.551,-8.1 z M 382.35,82.35 c 0,-9 3.2,-16.667 9.6,-23 6.334,-6.367 14,-9.55 23,-9.55 9,0 16.7,3.184 23.101,9.55 6.333,6.333 9.5,14 9.5,23 0,9.033 -3.167,16.733 -9.5,23.1 -6.4,6.333 -14.101,9.5 -23.101,9.5 -9,0 -16.666,-3.167 -23,-9.5 -6.4,-6.367 -9.6,-14.067 -9.6,-23.1 z" />
        <path
           style="fill:#6fc4a9"
           inkscape:connector-curvature="0"
           id="path63"
           d="m 442.1,136.75 c -0.434,1.9 -1.233,3.417 -2.4,4.55 -1.467,0.867 -2.717,0.75 -3.75,-0.35 -0.6,-6.034 -3.983,-10.067 -10.149,-12.1 1.267,-4.067 3.8,-6.917 7.6,-8.55 6.899,6.067 9.798,11.55 8.699,16.45 z M 406.9,120.3 c 6.9,6.067 9.8,11.55 8.7,16.45 -0.434,1.9 -1.233,3.417 -2.4,4.55 -1.467,0.867 -2.717,0.75 -3.75,-0.35 -0.6,-6.034 -3.983,-10.067 -10.149,-12.1 1.266,-4.067 3.799,-6.916 7.599,-8.55 z" />
        <path
           style="opacity:0.50199998;fill:#8bcfba"
           inkscape:connector-curvature="0"
           id="path223"
           d="m 426.3,119.15 c -0.567,-0.566 -0.851,-1.25 -0.851,-2.05 0,-0.8 0.283,-1.483 0.851,-2.05 0.566,-0.566 1.25,-0.85 2.05,-0.85 0.8,0 1.483,0.283 2.05,0.85 0.566,0.567 0.851,1.25 0.851,2.05 0,0.8 -0.284,1.483 -0.851,2.05 -0.566,0.567 -1.25,0.85 -2.05,0.85 -0.8,0 -1.484,-0.283 -2.05,-0.85 z m -0.8,6.7 c -0.567,0 -1.051,-0.2 -1.45,-0.6 -0.4,-0.4 -0.601,-0.883 -0.601,-1.45 0,-0.566 0.2,-1.05 0.601,-1.45 0.399,-0.4 0.883,-0.6 1.45,-0.6 0.566,0 1.05,0.2 1.449,0.6 0.4,0.4 0.601,0.883 0.601,1.45 0,0.567 -0.2,1.05 -0.601,1.45 -0.399,0.4 -0.882,0.6 -1.449,0.6 z m -8.85,-4.9 c 1.101,0 2.033,0.383 2.8,1.15 0.767,0.767 1.15,1.7 1.15,2.8 0,1.1 -0.384,2.034 -1.15,2.8 -0.766,0.766 -1.7,1.15 -2.8,1.15 -1.1,0 -2.033,-0.383 -2.8,-1.15 -0.767,-0.767 -1.15,-1.7 -1.15,-2.8 0,-1.1 0.384,-2.033 1.15,-2.8 0.766,-0.767 1.7,-1.15 2.8,-1.15 z"
           enable-background="new    " />
      </g>
    </g>
    <path
       style="fill:none;stroke:#000000;stroke-width:2.771;stroke-linecap:butt;stroke-linejoin:miter;stroke-miterlimit:4;stroke-opacity:1;stroke-dasharray:11.084,2.771;stroke-dashoffset:13.85499993;marker-mid:none"
       d="m 120.14554,929.25844 c 98.95717,-27.02967 199.29491,-34.63473 302.69668,0.87149"
       id="path3255"
       inkscape:connector-curvature="0"
       sodipodi:nodetypes="cc" />
    <text
       xml:space="preserve"
       style="font-size:20px;font-style:normal;font-weight:normal;line-height:125%;letter-spacing:0px;word-spacing:0px;fill:#000000;fill-opacity:1;stroke:none;font-family:Sans"
       x="261.30835"
       y="1036.2089"
       id="text2994"
       sodipodi:linespacing="125%"><tspan
         sodipodi:role="line"
         id="tspan2996"
         x="261.30835"
         y="1036.2089"
         style="font-size:25px;font-style:normal;font-variant:normal;font-weight:normal;font-stretch:normal;font-family:Droid Sans;-inkscape-font-specification:Droid Sans">0,5m</tspan></text>
    <text
       sodipodi:linespacing="125%"
       id="text3008"
       y="1036.2089"
       x="555.92358"
       style="font-size:20px;font-style:normal;font-weight:normal;line-height:125%;letter-spacing:0px;word-spacing:0px;fill:#000000;fill-opacity:1;stroke:none;font-family:Sans"
       xml:space="preserve"><tspan
         style="font-size:25px;font-style:normal;font-variant:normal;font-weight:normal;font-stretch:normal;font-family:Droid Sans;-inkscape-font-specification:Droid Sans"
         y="1036.2089"
         x="555.92358"
         id="tspan3010"
         sodipodi:role="line">0,25m</tspan></text>
    <text
       xml:space="preserve"
       style="font-size:20px;font-style:normal;font-weight:normal;line-height:125%;letter-spacing:0px;word-spacing:0px;fill:#000000;fill-opacity:1;stroke:none;font-family:Sans"
       x="756.92358"
       y="1036.2089"
       id="text3017"
       sodipodi:linespacing="125%"><tspan
         sodipodi:role="line"
         id="tspan3019"
         x="756.92358"
         y="1036.2089"
         style="font-size:25px;font-style:normal;font-variant:normal;font-weight:normal;font-stretch:normal;font-family:Droid Sans;-inkscape-font-specification:Droid Sans">0,25m</tspan></text>
  </g>
</svg>
