<?xml version="1.0" encoding="UTF-8" standalone="no"?>
<!-- Created with Inkscape (http://www.inkscape.org/) -->

<svg
   xmlns:dc="http://purl.org/dc/elements/1.1/"
   xmlns:cc="http://creativecommons.org/ns#"
   xmlns:rdf="http://www.w3.org/1999/02/22-rdf-syntax-ns#"
   xmlns:svg="http://www.w3.org/2000/svg"
   xmlns="http://www.w3.org/2000/svg"
   xmlns:sodipodi="http://sodipodi.sourceforge.net/DTD/sodipodi-0.dtd"
   xmlns:inkscape="http://www.inkscape.org/namespaces/inkscape"
   width="980"
   height="200"
   id="svg2"
   version="1.1"
   inkscape:version="0.48.3.1 r9886"
   sodipodi:docname="reta-5.svg">
  <defs
     id="defs4" />
  <sodipodi:namedview
     id="base"
     pagecolor="#ffffff"
     bordercolor="#666666"
     borderopacity="1.0"
     inkscape:pageopacity="0.0"
     inkscape:pageshadow="2"
     inkscape:zoom="3.2455096"
     inkscape:cx="711.74873"
     inkscape:cy="42.901929"
     inkscape:document-units="px"
     inkscape:current-layer="layer1"
     showgrid="false"
     inkscape:showpageshadow="false"
     inkscape:window-width="1600"
     inkscape:window-height="876"
     inkscape:window-x="0"
     inkscape:window-y="24"
     inkscape:window-maximized="1" />
  <metadata
     id="metadata7">
    <rdf:RDF>
      <cc:Work
         rdf:about="">
        <dc:format>image/svg+xml</dc:format>
        <dc:type
           rdf:resource="http://purl.org/dc/dcmitype/StillImage" />
        <dc:title />
      </cc:Work>
    </rdf:RDF>
  </metadata>
  <g
     inkscape:label="Camada 1"
     inkscape:groupmode="layer"
     id="layer1"
     transform="translate(0,-852.36218)">
    <path
       style="fill:#1a1a1a;fill-opacity:1;stroke:none"
       d="M 793.5 154 L 890 154 L 890 146 L 793.5 146 L 793.5 154 z "
       id="path3025"
       transform="translate(0,852.36218)" />
    <path
       style="fill:#1a1a1a;fill-opacity:1;stroke:none"
       d="M 789.5 146 L 693 146 L 693 154 L 789.5 154 L 789.5 146 z "
       id="path3023"
       transform="translate(0,852.36218)" />
    <path
       style="fill:#1a1a1a;fill-opacity:1;stroke:none"
       d="m 789.5,986.36217 0,32.00003 4,0 0,-32.00003 -4,0 z"
       id="path4239"
       inkscape:connector-curvature="0" />
    <path
       style="fill:#1a1a1a;fill-opacity:1;stroke:none"
       d="M 689 146 L 492 146 L 492 154 L 689 154 L 689 146 z "
       id="path4237"
       transform="translate(0,852.36218)" />
    <path
       style="fill:#1a1a1a;fill-opacity:1;stroke:none"
       d="m 689,986.36217 0,32.00003 4,0 0,-32.00003 -4,0 z"
       id="path3199"
       inkscape:connector-curvature="0" />
    <path
       style="fill:#1a1a1a;fill-opacity:1;stroke:none"
       d="M 488 146 L 90 146 L 90 154 L 488 154 L 488 146 z "
       id="path3197"
       transform="translate(0,852.36218)" />
    <path
       style="fill:#1a1a1a;fill-opacity:1;stroke:none"
       d="m 488,986.36217 0,32.00003 4,0 0,-32.00003 -4,0 z"
       id="rect2987"
       inkscape:connector-curvature="0" />
    <rect
       style="fill:#1a1a1a;fill-opacity:1;stroke:none"
       id="rect2989"
       width="4"
       height="32"
       x="86"
       y="986.36218" />
    <rect
       y="986.36218"
       x="890"
       height="32"
       width="4"
       id="rect3012"
       style="fill:#1a1a1a;fill-opacity:1;stroke:none" />
    <g
       id="g241"
       transform="translate(791.4995,986.36215)">
      <g
         id="g243">
        <path
           style="fill:#6fc4a9"
           inkscape:connector-curvature="0"
           id="path245"
           d="m 7.35,-23 c 1.232,-1.434 2.75,-2.133 4.55,-2.1 1.866,-0.033 3.383,0.667 4.55,2.1 1.2,1.333 1.7,2.9 1.5,4.7 L 16.6,0 H 8.25 l -2.2,-18.3 c -0.133,-1.8 0.3,-3.367 1.3,-4.7 z" />
      </g>
      <g
         id="g247">
        <path
           style="fill:#6fc4a9"
           inkscape:connector-curvature="0"
           id="path249"
           d="m -11.9,-25.1 c 1.8,-0.033 3.316,0.667 4.55,2.1 1,1.333 1.433,2.9 1.3,4.7 L -8.25,0 h -8.35 l -1.351,-18.3 c -0.199,-1.8 0.301,-3.367 1.5,-4.7 1.167,-1.434 2.684,-2.133 4.551,-2.1 z" />
      </g>
      <g
         id="g251">
        <path
           style="fill:#6fc4a9"
           inkscape:connector-curvature="0"
           id="path253"
           d="m 23.45,-21.9 c 0.1,-5.467 -2.184,-8.134 -6.85,-8 v -9.2 l 0.3,0.1 c 7.899,3.1 11.75,8.833 11.55,17.2 -0.033,0.7 -0.283,1.284 -0.75,1.75 -0.5,0.467 -1.1,0.7 -1.8,0.7 -0.7,0 -1.283,-0.25 -1.75,-0.75 -0.467,-0.5 -0.7,-1.1 -0.7,-1.8 z" />
        <path
           style="fill:#6fc4a9"
           inkscape:connector-curvature="0"
           id="path255"
           d="m -27.15,-20.1 c -0.467,0.5 -1.051,0.75 -1.75,0.75 -0.7,0 -1.301,-0.233 -1.801,-0.7 -0.467,-0.466 -0.717,-1.05 -0.75,-1.75 -0.199,-8.367 3.651,-14.1 11.551,-17.2 l 0.3,-0.1 v 9.2 c -4.667,-0.134 -6.95,2.533 -6.851,8 0,0.7 -0.233,1.3 -0.699,1.8 z" />
        <path
           style="fill:#6fc4a9"
           inkscape:connector-curvature="0"
           id="path257"
           d="m -15.201,-77.4 c 4.2,-4.2 9.267,-6.3 15.2,-6.3 5.933,0 11,2.1 15.2,6.3 4.2,4.2 6.3,9.267 6.3,15.2 v 40.4 c 0,3.633 -2.1,6.733 -6.3,9.3 C 11,-9.967 5.933,-8.7 0,-8.7 c -5.933,0 -11,-1.267 -15.2,-3.8 -4.199,-2.567 -6.3,-5.667 -6.3,-9.3 v -40.4 c 0,-5.933 2.1,-11 6.299,-15.2 z" />
        <path
           style="fill:#347e67"
           inkscape:connector-curvature="0"
           id="path259"
           d="m 10.299,-54.25 c 1,-0.967 2.2,-1.45 3.601,-1.45 1.333,0 2.483,0.483 3.45,1.45 1,1 1.5,2.167 1.5,3.5 0,1.333 -0.5,2.466 -1.5,3.4 -0.967,1 -2.117,1.5 -3.45,1.5 -1.4,0 -2.601,-0.5 -3.601,-1.5 -0.932,-0.934 -1.399,-2.067 -1.399,-3.4 0,-1.333 0.467,-2.5 1.399,-3.5 z m -0.199,11.2 0.5,-0.55 c 0.267,-0.133 0.533,-0.133 0.8,0 l 0.6,0.5 v 0.8 c -0.399,0.9 -1.05,1.717 -1.95,2.45 -1.4,1.1 -3.084,1.65 -5.05,1.65 -2,0 -3.7,-0.55 -5.1,-1.65 -1,-0.733 -1.634,-1.583 -1.9,-2.55 l 0.101,-0.75 0.55,-0.5 0.85,0.1 0.449,0.55 c 0.2,0.6 0.6,1.133 1.2,1.6 1.033,0.8 2.316,1.2 3.85,1.2 1.467,0 2.733,-0.4 3.8,-1.2 0.6,-0.5 1.033,-1.05 1.3,-1.65 z M -3.8,-55.7 c 1.333,0 2.483,0.483 3.45,1.45 1,1 1.5,2.167 1.5,3.5 0,1.333 -0.5,2.466 -1.5,3.4 -0.967,1 -2.117,1.5 -3.45,1.5 -1.4,0 -2.6,-0.5 -3.6,-1.5 -0.934,-0.934 -1.4,-2.067 -1.4,-3.4 0,-1.333 0.467,-2.5 1.4,-3.5 1,-0.967 2.199,-1.45 3.6,-1.45 z" />
        <path
           style="opacity:0.30199998;fill:#ffffff"
           inkscape:connector-curvature="0"
           id="path261"
           d="m 18.1,-76.25 c 1.833,1.833 2.75,4.05 2.75,6.65 0,2.6 -0.917,4.816 -2.75,6.65 -1.834,1.833 -4.051,2.75 -6.65,2.75 -2.599,0 -4.816,-0.917 -6.65,-2.75 C 2.933,-64.784 2,-67 2,-69.6 c 0,-2.6 0.934,-4.817 2.8,-6.65 1.834,-1.867 4.051,-2.8 6.65,-2.8 2.599,0 4.816,0.933 6.65,2.8 z"
           enable-background="new    " />
        <path
           style="opacity:0.2;fill:#ffffff"
           inkscape:connector-curvature="0"
           id="path263"
           d="m 20.85,-69.6 c 0,-2.6 -0.917,-4.817 -2.75,-6.65 -1.834,-1.867 -4.051,-2.8 -6.65,-2.8 -2.599,0 -4.816,0.934 -6.65,2.8 -1.867,1.833 -2.8,4.05 -2.8,6.65 0,2.6 0.934,4.816 2.8,6.65 1.834,1.833 4.051,2.75 6.65,2.75 2.599,0 4.816,-0.917 6.65,-2.75 1.833,-1.834 2.75,-4.05 2.75,-6.65 z m -1.301,-9.1 c 5.367,5.367 8.051,11.85 8.051,19.45 0,7.633 -2.684,14.15 -8.051,19.55 -5.432,5.367 -11.949,8.05 -19.549,8.05 -7.6,0 -14.083,-2.684 -19.45,-8.05 -5.433,-5.4 -8.149,-11.917 -8.149,-19.55 0,-7.6 2.717,-14.083 8.149,-19.45 5.367,-5.4 11.85,-8.1 19.45,-8.1 7.6,0 14.117,2.7 19.549,8.1 z"
           enable-background="new    " />
        <path
           style="fill:#ffffff"
           inkscape:connector-curvature="0"
           id="path265"
           d="m 27.6,-59.25 c 0,-7.6 -2.684,-14.083 -8.051,-19.45 C 14.117,-84.1 7.6,-86.8 0,-86.8 c -7.6,0 -14.083,2.7 -19.45,8.1 -5.433,5.367 -8.149,11.85 -8.149,19.45 0,7.633 2.717,14.15 8.149,19.55 5.367,5.367 11.85,8.05 19.45,8.05 7.601,0 14.117,-2.684 19.55,-8.05 5.367,-5.4 8.05,-11.917 8.05,-19.55 z M 0,-91.8 c 9,0 16.7,3.184 23.101,9.55 6.333,6.333 9.5,14 9.5,23 0,9.033 -3.167,16.733 -9.5,23.1 C 16.7,-29.817 9,-26.65 0,-26.65 c -9,0 -16.667,-3.167 -23,-9.5 -6.399,-6.367 -9.6,-14.067 -9.6,-23.1 0,-9 3.2,-16.667 9.6,-23 6.333,-6.367 14,-9.55 23,-9.55 z" />
        <path
           style="opacity:0.50199998;fill:#8bcfba"
           inkscape:connector-curvature="0"
           id="path267"
           d="m 15.9,-28.3 c 0.8,0 1.483,0.284 2.05,0.85 0.566,0.567 0.85,1.25 0.85,2.05 0,0.8 -0.283,1.483 -0.85,2.05 -0.566,0.566 -1.25,0.85 -2.05,0.85 -0.8,0 -1.483,-0.284 -2.05,-0.85 C 13.283,-23.917 13,-24.6 13,-25.4 c 0,-0.8 0.283,-1.483 0.851,-2.05 0.566,-0.567 1.249,-0.85 2.049,-0.85 z m -2.851,7.55 c 0.567,0 1.051,0.2 1.45,0.6 0.4,0.4 0.601,0.883 0.601,1.45 0,0.567 -0.2,1.05 -0.601,1.45 -0.399,0.4 -0.883,0.6 -1.45,0.6 -0.566,0 -1.05,-0.2 -1.449,-0.6 -0.4,-0.4 -0.6,-0.883 -0.6,-1.45 0,-0.566 0.2,-1.05 0.601,-1.45 0.399,-0.4 0.882,-0.6 1.448,-0.6 z M 4.2,-21.55 c 1.1,0 2.033,0.383 2.8,1.15 0.767,0.767 1.15,1.7 1.15,2.8 0,1.1 -0.384,2.033 -1.15,2.8 -0.766,0.767 -1.7,1.15 -2.8,1.15 -1.1,0 -2.033,-0.384 -2.8,-1.15 -0.767,-0.766 -1.15,-1.7 -1.15,-2.8 0,-1.1 0.384,-2.033 1.15,-2.8 0.767,-0.767 1.7,-1.15 2.8,-1.15 z"
           enable-background="new    " />
      </g>
    </g>
    <path
       style="fill:none;stroke:#000000;stroke-width:2.7;stroke-linecap:butt;stroke-linejoin:miter;stroke-miterlimit:4;stroke-opacity:1;stroke-dasharray:10.8,2.7;stroke-dashoffset:13.49999965;marker-mid:none"
       d="m 696.38409,951.98371 c 19.61342,-13.35523 39.50047,-17.11285 59.99482,0.4306"
       id="path3255"
       inkscape:connector-curvature="0"
       sodipodi:nodetypes="cc" />
    <text
       xml:space="preserve"
       style="font-size:20px;font-style:normal;font-weight:normal;line-height:125%;letter-spacing:0px;word-spacing:0px;fill:#000000;fill-opacity:1;stroke:none;font-family:Sans"
       x="261.30835"
       y="1036.2089"
       id="text2994"
       sodipodi:linespacing="125%"><tspan
         sodipodi:role="line"
         id="tspan2996"
         x="261.30835"
         y="1036.2089"
         style="font-size:25px;font-style:normal;font-variant:normal;font-weight:normal;font-stretch:normal;font-family:Droid Sans;-inkscape-font-specification:Droid Sans">0,5m</tspan></text>
    <text
       sodipodi:linespacing="125%"
       id="text3008"
       y="1036.2089"
       x="555.92358"
       style="font-size:20px;font-style:normal;font-weight:normal;line-height:125%;letter-spacing:0px;word-spacing:0px;fill:#000000;fill-opacity:1;stroke:none;font-family:Sans"
       xml:space="preserve"><tspan
         style="font-size:25px;font-style:normal;font-variant:normal;font-weight:normal;font-stretch:normal;font-family:Droid Sans;-inkscape-font-specification:Droid Sans"
         y="1036.2089"
         x="555.92358"
         id="tspan3010"
         sodipodi:role="line">0,25m</tspan></text>
    <text
       xml:space="preserve"
       style="font-size:20px;font-style:normal;font-weight:normal;line-height:125%;letter-spacing:0px;word-spacing:0px;fill:#000000;fill-opacity:1;stroke:none;font-family:Sans"
       x="699.78882"
       y="1036.2089"
       id="text3017"
       sodipodi:linespacing="125%"><tspan
         sodipodi:role="line"
         id="tspan3019"
         x="699.78882"
         y="1036.2089"
         style="font-size:25px;font-style:normal;font-variant:normal;font-weight:normal;font-stretch:normal;font-family:Droid Sans;-inkscape-font-specification:Droid Sans">0,125m</tspan></text>
    <text
       sodipodi:linespacing="125%"
       id="text3027"
       y="1036.2089"
       x="800.28882"
       style="font-size:20px;font-style:normal;font-weight:normal;line-height:125%;letter-spacing:0px;word-spacing:0px;fill:#000000;fill-opacity:1;stroke:none;font-family:Sans"
       xml:space="preserve"><tspan
         style="font-size:25px;font-style:normal;font-variant:normal;font-weight:normal;font-stretch:normal;font-family:Droid Sans;-inkscape-font-specification:Droid Sans"
         y="1036.2089"
         x="800.28882"
         id="tspan3029"
         sodipodi:role="line">0,125m</tspan></text>
  </g>
</svg>
